<?xml version="1.0" encoding="UTF-8" standalone="no"?>
<!-- Created with Inkscape (http://www.inkscape.org/) -->

<svg
   width="148"
   height="148"
   viewBox="0 0 39.158333 39.158333"
   version="1.1"
   id="svg1"
   sodipodi:docname="favicon.svg"
   inkscape:version="1.3.2 (091e20ef0f, 2023-11-25)"
   xmlns:inkscape="http://www.inkscape.org/namespaces/inkscape"
   xmlns:sodipodi="http://sodipodi.sourceforge.net/DTD/sodipodi-0.dtd"
   xmlns="http://www.w3.org/2000/svg"
   xmlns:svg="http://www.w3.org/2000/svg">
  <sodipodi:namedview
     id="namedview1"
     pagecolor="#505050"
     bordercolor="#eeeeee"
     borderopacity="1"
     inkscape:showpageshadow="0"
     inkscape:pageopacity="0"
     inkscape:pagecheckerboard="0"
     inkscape:deskcolor="#505050"
     inkscape:zoom="3.197694"
     inkscape:cx="72.865008"
     inkscape:cy="75.992262"
     inkscape:window-width="2560"
     inkscape:window-height="1012"
     inkscape:window-x="0"
     inkscape:window-y="32"
     inkscape:window-maximized="1"
     inkscape:current-layer="svg1" />
  <defs
     id="defs1" />
  <rect
     style="fill:#2084ea;fill-opacity:1;stroke-width:0.978958;stroke-linecap:round;paint-order:stroke markers fill"
     id="rect1"
     width="39.158333"
     height="39.158333"
     x="0"
     y="0" />
  <g
     id="g44-4-7-8"
     transform="matrix(0.43485353,0,0,0.43485353,-199.48261,463.32037)">
    <path
       id="path15-5-0-3-0-0-6-1-3-6-1-4-2-1-9-1-5-4"
       style="fill:#000000;stroke:#ffffff;stroke-width:0;stroke-linecap:round;stroke-linejoin:round;paint-order:stroke fill markers"
       d="m 507.77807,-1056.4947 c -12.39687,5e-4 -22.44624,10.0514 -22.44611,22.4483 3.6e-4,0.7719 0.0541,1.5374 0.13309,2.2991 l 3.00541,-0.7148 c -0.0186,-0.3256 -0.0418,-0.6509 -0.0429,-0.9789 -1e-5,0 -1e-5,0 0,-0.01 6e-5,-10.3669 8.4513,-18.8182 18.81816,-18.8182 10.36687,10e-5 18.81809,8.4513 18.81817,18.8182 v 0 0 0 0 c -0.0775,22.0601 -26.84318,14.019 -26.9242,38.10858 0.0312,3.45411 0.886,6.8509 2.49449,9.90714 0.16992,0.32719 0.25481,0.69187 0.24688,1.06047 2.27694,0.007 4.50403,-0.10749 6.94893,-0.64402 0.12749,-0.0282 0.25504,-0.0576 0.38427,-0.088 1.94448,-2.92732 5.21656,-4.69923 8.73072,-4.72709 3.02421,0.003 5.90187,1.30344 7.90638,3.56786 l 0.13095,-0.006 6.31137,-8.87026 c -6.08894,-2.70984 -10.01986,-8.74238 -10.04023,-15.40708 0.013,-3.7239 1.25322,-7.3395 3.52922,-10.2871 0.0851,-0.1201 0.17149,-0.2404 0.25975,-0.3585 0.40985,-0.5466 0.79444,-1.112 1.15279,-1.6937 1.96855,-3.3934 3.01202,-7.2421 3.02903,-11.1651 1.1e-4,-12.3973 -10.0488,-22.4485 -22.44614,-22.4483 z m -10.74004,63.04281 c 0.007,0.0702 0.0123,0.14025 0.0193,0.21039 -0.007,-0.0701 -0.0132,-0.14016 -0.0193,-0.21039 z" />
    <path
       id="path32-1-6-8-2-2-3-2-9-8-6-0-7-5-7-8"
       style="color:#000000;fill:#ffffff;stroke-width:1.09912;stroke-linecap:round;stroke-linejoin:round;-inkscape-stroke:none;paint-order:stroke fill markers"
       d="m 507.2457,-1050.0696 c -9.17891,10e-5 -16.61987,7.4411 -16.61992,16.62 0.0107,0.1554 0.0236,0.3107 0.0387,0.4658 l 2.64261,-0.7256 c 0.89799,-0.247 1.98226,-0.538 3.16427,-0.644 0.29551,-0.026 0.59743,-0.041 0.90377,-0.041 0.91901,7e-4 1.87988,0.1373 2.84654,0.5066 2.66325,1.0177 4.77206,3.1265 5.78971,5.7897 0.87609,2.2928 0.87608,4.8623 0,7.1551 -1.01765,2.6632 -3.12646,4.7742 -5.78971,5.7918 -2.18557,0.8352 -3.98373,0.6267 -5.27877,0.2705 l -5.50849,-1.5156 -2.30773,-0.6332 c -4.10923,3.4614 -6.58063,8.5942 -6.59259,14.1104 0.0286,9.88535 7.82173,18.00157 12.88034,18.2471 5.05855,0.24556 5.32815,0.2529 5.61152,0.25976 h 0.0171 0.007 c 0.21712,0.005 0.4231,0.008 0.63758,0.011 -1.77393,-3.3706 -2.71571,-7.11802 -2.7478,-10.92683 0.0732,-25.58963 26.85438,-17.71503 26.92634,-38.12153 -5e-5,-9.1789 -7.44101,-16.6198 -16.61992,-16.6199 z m -9.80623,17.9552 c -1.24173,0.013 -2.6001,0.2624 -3.55067,0.5238 l -3.02903,0.833 c 0.58808,3.5163 2.29125,6.7502 4.85804,9.2244 -1.10804,0.8463 -2.68761,1.5659 -4.96322,2.1038 -0.46076,0.2308 -0.90442,0.4842 -1.33956,0.7492 l 0.60108,0.1653 5.50849,1.5156 c 0.61796,0.17 2.44818,0.3538 3.91346,-0.2061 2.076,-0.7932 3.72561,-2.445 4.51886,-4.521 0.5599,-1.4653 0.5599,-4.1226 0,-5.5879 -0.79326,-2.076 -2.44286,-3.7277 -4.51886,-4.521 -0.54948,-0.2099 -1.25354,-0.287 -1.99859,-0.2791 z" />
    <path
       style="color:#000000;fill:#ffcc00;stroke-width:0.568145;stroke-linecap:round;stroke-linejoin:round;-inkscape-stroke:none;paint-order:stroke fill markers"
       d="m 493.88968,-1031.5899 a 73085.155,73085.155 0 0 1 -3.87274,1.0651 l -19.08118,5.2476 a 0.78546685,0.78546685 0 0 0 0,1.5147 l 19.08118,5.2475 a 104347.49,104347.49 0 0 1 5.5077,1.5149 c 0.61796,0.17 2.44708,0.3546 3.91237,-0.2053 2.076,-0.7933 3.7277,-2.445 4.52095,-4.521 0.5599,-1.4653 0.5599,-4.1217 0,-5.587 -0.79326,-2.076 -2.44496,-3.7277 -4.52096,-4.521 -1.46528,-0.5599 -4.02642,-0.1739 -5.54732,0.2445 z m -2.29401,1.1489 c 0.25634,-0.2231 0.25634,-0.2231 0.25634,-0.2231 z m -0.84111,0.8289 c 0.27852,-0.3141 0.27852,-0.3141 0.27852,-0.3141 z m -0.68133,0.9055 c 0.24856,-0.3695 0.24856,-0.3695 0.24856,-0.3695 z m -0.53929,0.9809 c 0.20861,-0.4161 0.20861,-0.4161 0.20861,-0.4161 z m -0.38617,1.0242 c 0.13538,-0.395 0.13538,-0.395 0.13538,-0.395 z m -0.24412,1.083 c 0.0721,-0.3539 0.0721,-0.3539 0.0721,-0.3539 z m 0.0721,2.5511 c -0.0721,-0.3539 -0.0721,-0.3539 -0.0721,-0.3539 z m 0.30737,1.1241 c -0.13538,-0.395 -0.13538,-0.395 -0.13538,-0.395 z m 0.4594,1.0453 c -0.20862,-0.4161 -0.20862,-0.4161 -0.20862,-0.4161 z m 0.57923,0.9344 c -0.24855,-0.3695 -0.24855,-0.3695 -0.24855,-0.3695 z m 0.7113,0.85 c -0.27853,-0.3141 -0.27853,-0.3141 -0.27853,-0.3141 z m 0.81892,0.7379 c -0.25633,-0.2231 -0.25633,-0.2231 -0.25633,-0.2231 z"
       id="path30-9-6-0-5-8-3-1-0-5-4-3-5-4-1-1" />
    <path
       id="rect43-1-6-1-6-6"
       style="fill:#ffcc00;stroke-width:0.32807;stroke-linecap:round;stroke-linejoin:round;paint-order:stroke fill markers"
       d="m 511.55777,-1010.1332 a 0.2563225,0.2563225 0 0 0 -0.19266,0.1153 l -6.40204,9.8241 a 0.78040308,0.78040308 0 0 0 0.53134,1.19675 l 3.31297,0.52682 -0.96033,6.0402 a 0.2563225,0.2563225 0 0 0 0.46791,0.18008 l 6.40188,-9.82405 a 0.78040308,0.78040308 0 0 0 -0.53135,-1.1968 l -3.31297,-0.5267 0.96049,-6.0402 a 0.2563225,0.2563225 0 0 0 -0.27524,-0.2955 z" />
  </g>
</svg>
