<?xml version="1.0" encoding="UTF-8" standalone="no"?>
<!-- Created with Inkscape (http://www.inkscape.org/) -->

<svg
   width="1280"
   height="720"
   viewBox="0 0 338.66666 190.5"
   version="1.1"
   id="svg1"
   xmlns="http://www.w3.org/2000/svg"
   xmlns:svg="http://www.w3.org/2000/svg">
  <defs
     id="defs1" />
  <g
     id="layer1"
     transform="translate(-697.33332)">
    <path
       id="rect19-2-7-8-3-9-3-3-0-9-1-7-7-5-22-9-0-7-4-6"
       style="fill:#ffffff;fill-opacity:1;stroke:none;stroke-width:7.98835;stroke-linecap:round;stroke-linejoin:round;stroke-dasharray:none;stroke-opacity:1;paint-order:stroke fill markers"
       d="m 723.8099,53.611175 c -6.47929,0 -11.69592,5.215933 -11.69592,11.695207 v 59.886498 c 0,6.47931 5.21663,11.69594 11.69592,11.69594 h 59.8858 c 6.47929,0 11.69592,-5.21663 11.69592,-11.69594 V 65.306382 c 0,-6.479274 -5.21663,-11.695207 -11.69592,-11.695207 z m 34.30004,11.604843 c 10.32404,-1.69e-4 18.69257,8.369759 18.69245,18.693852 -0.0145,3.266972 -0.88258,6.472613 -2.52195,9.298543 -0.29839,0.48443 -0.6187,0.95521 -0.95994,1.41039 -0.0734,0.0984 -0.14671,0.19883 -0.21693,0.29889 -1.89521,2.45466 -2.92443,5.465137 -2.93821,8.566287 0.0169,5.55015 3.28997,10.57427 8.36064,12.83092 l -5.25591,7.38647 -0.10882,0.005 c -1.66922,-1.88576 -4.06515,-2.96821 -6.58375,-2.97096 -2.92637,0.0241 -5.65108,1.49882 -7.27047,3.93661 -0.10738,0.0251 -0.21427,0.0499 -0.32023,0.0734 -2.03594,0.44674 -3.89045,0.54205 -5.78675,0.53655 0.007,-0.30698 -0.0642,-0.61135 -0.20558,-0.88382 -1.33972,-2.54516 -2.0517,-5.37317 -2.07788,-8.24964 0.0676,-20.061067 22.35795,-13.36512 22.42266,-31.736117 -1.2e-4,-8.633252 -7.03832,-15.671575 -15.67167,-15.671672 -8.63318,0 -15.67153,7.03842 -15.67167,15.671672 v 0.0072 c 10e-4,0.27312 0.0217,0.544329 0.0364,0.815499 l -2.50272,0.59489 c -0.0661,-0.63432 -0.11148,-1.271404 -0.11172,-1.914211 -1.4e-4,-10.323756 8.36792,-18.694142 18.69173,-18.694552 v -0.0048 z m 194.47155,1.283031 c -1.58052,0 -2.87596,0.505608 -3.88751,1.517135 -1.01153,1.011528 -1.51784,2.307686 -1.51784,3.888209 0,1.580523 0.50631,2.876681 1.51784,3.888209 1.01155,1.011551 2.30699,1.517134 3.88751,1.517134 1.58052,0 2.87665,-0.505583 3.88821,-1.517134 1.01152,-1.011528 1.51713,-2.307686 1.51713,-3.888209 0,-1.580523 -0.50561,-2.876681 -1.51713,-3.888209 -1.01156,-1.011527 -2.30769,-1.517135 -3.88821,-1.517135 z m -100.77458,3.555875 v 35.183146 h 10.66837 V 70.054924 Z m 128.31296,0 v 11.973458 c -0.4766,-0.541584 -0.98757,-1.037781 -1.56482,-1.446677 -1.48569,-1.106381 -3.25604,-1.659474 -5.3107,-1.659474 -2.33918,0 -4.39375,0.553093 -6.16393,1.659474 -1.73857,1.074747 -3.08221,2.591568 -4.03052,4.551407 -0.94831,1.95986 -1.4225,4.283281 -1.4225,6.970181 0,2.71849 0.49026,5.10549 1.47018,7.16015 0.97992,2.023077 2.35498,3.587387 4.12516,4.693747 1.80179,1.10638 3.90387,1.66017 6.30626,1.66017 1.99145,0 3.71428,-0.55379 5.16837,-1.66017 0.5225,-0.38909 0.98602,-0.85527 1.4225,-1.35774 v 2.63862 h 10.66837 V 70.054924 Z m -222.45324,0.518758 0.007,7.24e-4 c 7.64393,7.2e-5 13.84057,6.196087 13.84071,13.839986 -0.0598,16.993958 -22.3628,10.436511 -22.42338,31.746808 0.0268,3.17188 0.81125,6.29309 2.28852,9.10001 -0.17855,-0.002 -0.35004,-0.005 -0.53084,-0.01 h -0.0145 -0.0145 c -0.23598,-0.005 -0.46121,-0.0121 -4.67381,-0.21644 -4.21263,-0.20438 -10.70261,-6.96338 -10.72602,-15.1956 0.01,-4.59375 2.06796,-8.86818 5.49004,-11.750737 l 1.92203,0.5273 4.58771,1.2624 c 1.07835,0.296617 2.57555,0.469937 4.39558,-0.22561 2.21785,-0.84743 3.97426,-2.60542 4.82182,-4.82327 0.72956,-1.90936 0.72956,-4.04889 0,-5.95825 -0.84756,-2.217851 -2.60397,-3.974321 -4.82182,-4.821845 -0.80488,-0.307577 -1.60499,-0.421395 -2.37035,-0.421975 -0.25517,0 -0.50667,0.01206 -0.75288,0.03475 -0.98417,0.08831 -1.88721,0.330138 -2.63508,0.535841 l -2.20098,0.604151 c -0.0121,-0.129092 -0.0169,-0.258377 -0.0314,-0.387831 0,-7.643899 6.19676,-13.840614 13.84071,-13.84071 z m 66.55494,1.425346 -14.03497,33.239042 h 11.28461 l 1.69789,-4.69444 h 12.50076 l 1.63811,4.69444 h 11.71159 L 835.50619,71.999028 Z m 62.52015,6.827867 c -2.0863,0 -3.88807,0.553794 -5.40537,1.66015 -0.90285,0.658346 -1.66676,1.505046 -2.32339,2.499177 V 79.30152 h -10.66837 v 25.93655 h 10.66837 V 92.387923 c 0,-1.2644 0.30029,-2.27562 0.90092,-3.03427 0.60058,-0.75865 1.39113,-1.13787 2.37105,-1.13787 0.88509,0 1.59601,0.31566 2.13337,0.94787 0.53741,0.63219 0.80626,1.50167 0.80626,2.60803 v 13.466387 h 10.66837 V 92.387923 c 0,-1.2644 0.30029,-2.27562 0.9009,-3.03427 0.6006,-0.75865 1.39113,-1.13787 2.37107,-1.13787 0.88509,0 1.59671,0.31566 2.1341,0.94787 0.53738,0.63219 0.80553,1.50167 0.80553,2.60803 v 13.466387 h 10.66838 V 88.689733 c 0,-1.991471 -0.39457,-3.730381 -1.18483,-5.216074 -0.75863,-1.485694 -1.83342,-2.623298 -3.22429,-3.413559 -1.35923,-0.821871 -2.94031,-1.233205 -4.74212,-1.233205 -2.08628,0 -3.88804,0.553794 -5.40534,1.66015 -1.29387,0.943459 -2.31869,2.253033 -3.10688,3.886085 -0.1233,-0.306491 -0.24839,-0.611945 -0.40132,-0.899471 -0.75868,-1.485694 -1.83342,-2.623298 -3.22429,-3.413559 -1.35925,-0.821871 -2.94033,-1.233205 -4.74212,-1.233205 z m 122.52828,0 c -1.2644,0 -2.608,0.09507 -4.0305,0.284631 -1.4224,0.189657 -2.8764,0.4746 -4.3621,0.853914 -1.4541,0.379338 -2.92343,0.837459 -4.40913,1.37482 l 2.37035,7.112493 c 1.48568,-0.53738 2.92428,-0.948711 4.31518,-1.233201 1.3908,-0.28451 2.576,-0.42627 3.5559,-0.42627 1.3276,0 2.3235,0.26817 2.9873,0.80556 0.6701,0.487321 1.0095,1.170591 1.034,2.039441 h -5.9177 c -3.2875,0.0316 -5.78485,0.72646 -7.49181,2.08572 -1.70696,1.32765 -2.56037,3.27187 -2.56037,5.83231 0,1.64374 0.33173,3.082357 0.99555,4.315177 0.69544,1.20118 1.69128,2.14954 2.98729,2.84497 1.29604,0.66383 2.86034,0.99556 4.69374,0.99556 2.2127,0 4.0306,-0.49026 5.4531,-1.47018 0.7222,-0.50242 1.3377,-1.09941 1.8494,-1.78898 v 2.78521 h 10.4791 V 88.452753 c 0,-3.066211 -1.0594,-5.437142 -3.1773,-7.112493 -2.0863,-1.675327 -5.0103,-2.513365 -8.772,-2.513365 z m -79.62708,0.09531 c -2.78171,0 -5.21547,0.553094 -7.30177,1.65945 -2.05469,1.106381 -3.66719,2.670689 -4.83679,4.693747 -1.13796,1.99147 -1.70713,4.362371 -1.70713,7.112491 0,2.65527 0.5531,4.97872 1.65945,6.97016 1.13799,1.991467 2.76656,3.540407 4.88447,4.646787 2.11791,1.07475 4.64664,1.61249 7.5864,1.61249 2.52883,0 4.77267,-0.41133 6.7325,-1.2332 1.99145,-0.82187 3.6668,-1.99164 5.02606,-3.50894 l -5.54696,-5.452297 c -1.64374,1.54891 -3.39872,2.32339 -5.26373,2.32339 -0.94831,0 -1.78565,-0.22151 -2.51269,-0.66394 -0.69541,-0.47414 -1.24853,-1.15365 -1.65945,-2.03874 -0.0485,-0.11317 -0.0671,-0.2593 -0.10955,-0.37929 h 16.84723 c 0.18966,-3.19266 -0.25309,-5.95885 -1.32784,-8.298021 -1.04313,-2.370787 -2.62351,-4.203969 -4.74142,-5.499982 -2.11788,-1.296038 -4.69413,-1.944105 -7.72874,-1.944105 z m 17.5809,0.37929 V 105.23804 H 957.8922 V 79.301496 Z m -117.69156,3.650534 3.3915,9.720494 h -6.90754 z m -80.04838,2.575283 h 10e-4 c 0.1899,-0.002 0.3743,0.005 0.55505,0.0169 0.0919,0.007 0.1829,0.0145 0.27112,0.0249 0.0401,0.005 0.0804,0.01 0.12016,0.0169 0.097,0.0145 0.19159,0.0316 0.28251,0.0512 0.0427,0.01 0.084,0.0169 0.12378,0.0292 0.0931,0.0241 0.1829,0.0509 0.2683,0.0818 0.0121,0.005 0.0275,0.007 0.0413,0.0121 0.0121,0.005 0.0193,0.0121 0.034,0.0169 0.19159,0.0746 0.37927,0.15732 0.56147,0.24906 0.0241,0.0121 0.0456,0.0217 0.069,0.0348 0.18242,0.0944 0.3597,0.19738 0.53157,0.30813 0.0169,0.0121 0.0355,0.0241 0.0533,0.0343 0.17615,0.11582 0.3465,0.23961 0.51022,0.37145 0.01,0.01 0.0169,0.0169 0.0314,0.0263 0.16504,0.13464 0.32384,0.27713 0.47462,0.42697 0.0121,0.01 0.0169,0.0193 0.0299,0.0299 0.15347,0.15443 0.29996,0.31631 0.43766,0.485321 0.0145,0.002 0.0145,0.002 0.0145,0.005 0.0145,0.001 0.0145,0.005 0.0145,0.005 0.14164,0.17493 0.27384,0.35788 0.39777,0.54723 0.24911,0.38262 0.45942,0.79284 0.62481,1.22536 0.46613,1.22027 0.46613,3.43221 0,4.65248 -0.33036,0.86444 -0.83975,1.64099 -1.48227,2.28353 -0.15829,0.15829 -0.32493,0.30826 -0.49885,0.44975 0,0.005 -4.6e-4,0.007 -0.0145,0.0121 -0.17228,0.13923 -0.35123,0.26991 -0.53726,0.39138 0,0.002 2.4e-4,0.005 -0.0145,0.007 -0.18507,0.12016 -0.37681,0.23188 -0.57428,0.33303 -0.007,0.005 -0.01,0.01 -0.0241,0.0121 -0.19786,0.10038 -0.40122,0.19087 -0.60985,0.27112 0,10e-4 -0.0145,0.002 -0.0145,0.005 -2.7e-4,1e-4 -10e-4,-1e-4 -10e-4,0 -0.1525,0.0581 -0.30934,0.10641 -0.46895,0.14647 -0.31878,0.0804 -0.64633,0.12692 -0.96209,0.14936 -0.16312,0.0121 -0.3214,0.0169 -0.47535,0.0169 -0.28436,4.1e-4 -0.54696,-0.0169 -0.77279,-0.042 -0.0169,-0.001 -0.0304,-0.002 -0.0483,-0.005 -0.2133,-0.0256 -0.38843,-0.0584 -0.51236,-0.0912 -0.005,0 -0.005,-0.001 -0.0169,-0.002 l -4.587,-1.2624 -0.49955,-0.1373 h -7.2e-4 l -15.38844,-4.23261 a 0.65411581,0.65411581 0 0 1 0,-1.26097 l 15.89011,-4.369961 a 60863.366,60863.366 0 0 0 0.70236,-0.19351 l -7e-4,-7.3e-4 2.52263,-0.69381 c 0.0304,-0.007 0.07,-0.0169 0.10182,-0.0241 0.14768,-0.0391 0.30261,-0.0777 0.46896,-0.11462 0.0871,-0.0193 0.17807,-0.0364 0.26899,-0.0548 0.1291,-0.0258 0.25855,-0.0497 0.39351,-0.0726 0.0989,-0.0169 0.19689,-0.0321 0.29746,-0.047 0.14044,-0.0193 0.28104,-0.0376 0.4241,-0.0533 0.10062,-0.0121 0.19907,-0.0241 0.29959,-0.0321 0.20172,-0.0169 0.40246,-0.028 0.60131,-0.0321 0.0277,-0.001 0.0565,-0.002 0.0854,-0.005 z m 180.25369,0.50737 c 0.63219,0 1.18531,0.1578 1.65945,0.47395 0.47415,0.31609 0.83799,0.75884 1.09089,1.327841 0.2529,0.53738 0.3479,1.16938 0.28466,1.89642 h -6.43791 c 0.0545,-0.289 0.0994,-0.58663 0.17855,-0.85391 0.28449,-0.88509 0.69582,-1.579951 1.23321,-2.085721 0.53738,-0.50578 1.2008,-0.75858 1.99108,-0.75858 z m 46.54177,1.32716 c 0.79026,0 1.46977,0.20534 2.03874,0.616241 0.56899,0.41092 1.01174,0.99616 1.32786,1.75481 0.3161,0.75865 0.47393,1.64348 0.47393,2.655 0,1.01153 -0.15781,1.89706 -0.47393,2.65571 -0.31612,0.75865 -0.75887,1.34316 -1.32786,1.75411 -0.56897,0.41092 -1.24848,0.61624 -2.03874,0.61624 -0.79026,0 -1.48584,-0.20534 -2.08642,-0.61624 -0.56899,-0.41095 -1.01174,-0.99546 -1.32786,-1.75411 -0.3161,-0.75865 -0.47393,-1.64418 -0.47393,-2.65571 0,-1.01152 0.15781,-1.89635 0.47393,-2.655 0.31612,-0.75865 0.75887,-1.34389 1.32786,-1.75481 0.60058,-0.410951 1.29616,-0.616241 2.08642,-0.616241 z m 30.76266,7.207111 h 3.6982 v 2.37107 c -0.2845,0.41095 -0.6162,0.77407 -0.9955,1.09019 -0.3793,0.28449 -0.7907,0.50587 -1.2332,0.66392 -0.4426,0.15805 -0.9007,0.23695 -1.3749,0.23695 -0.7586,0 -1.3438,-0.20534 -1.7548,-0.61624 -0.4109,-0.41095 -0.6162,-0.96404 -0.6162,-1.65947 0,-0.69543 0.1899,-1.21711 0.5693,-1.56482 0.4109,-0.3477 0.98,-0.5216 1.7071,-0.5216 z M 761.3136,102.8072 c -0.0475,-10e-4 -0.0956,1.5e-4 -0.14381,0.005 -0.37814,0.0326 -0.72256,0.23912 -0.93007,0.5572 l -5.33206,8.18201 c -0.64074,0.98353 -0.0193,2.38183 1.13926,2.56606 l 1.74772,0.27751 -0.63832,4.01986 c -0.0912,0.57392 0.30241,1.16583 0.77709,1.34849 0.47465,0.18266 1.16385,0.007 1.48084,-0.47962 l 5.33134,-8.1806 c 0.64102,-0.98349 0.0193,-2.38319 -1.13999,-2.56747 l -1.74769,-0.27753 0.63902,-4.01844 a 1.0238996,1.0238996 0 0 0 0,-7e-4 1.0238996,1.0238996 0 0 0 0,-7.2e-4 c 0.11437,-0.72183 -0.46997,-1.40262 -1.18341,-1.42959 z m -0.0562,1.02401 a 0.21345853,0.21345853 0 0 1 0.22922,0.24621 l -0.79984,5.03033 2.75888,0.43905 a 0.64989884,0.64989884 0 0 1 0.44261,0.99626 l -5.33134,8.18131 a 0.21345853,0.21345853 0 0 1 -0.38923,-0.15009 l 0.79982,-5.03032 -2.75888,-0.43836 a 0.64989884,0.64989884 0 0 1 -0.44333,-0.99623 l 5.33206,-8.18133 a 0.21345853,0.21345853 0 0 1 0.15998,-0.096 z m 69.92154,7.92869 c -0.27884,0 -0.53321,0.0946 -0.76285,0.28321 -0.22561,0.18459 -0.36124,0.40559 -0.40632,0.66394 -0.041,0.26243 0.0193,0.4865 0.18435,0.67104 0.16818,0.18459 0.39379,0.27681 0.67676,0.27681 0.27474,0 0.52749,-0.0922 0.75713,-0.27681 0.22971,-0.18459 0.3646,-0.40861 0.40562,-0.67104 0.0451,-0.26655 -0.0193,-0.4899 -0.19063,-0.67033 -0.16818,-0.18459 -0.38918,-0.27682 -0.66394,-0.27682 z m 39.91106,0 c -0.27884,0 -0.53321,0.0946 -0.76285,0.28321 -0.22561,0.18459 -0.36124,0.40559 -0.40632,0.66394 -0.041,0.26243 0.0217,0.4865 0.18508,0.67104 0.16818,0.18459 0.39379,0.27681 0.67675,0.27681 0.27474,0 0.52679,-0.0922 0.75643,-0.27681 0.22947,-0.18459 0.36457,-0.40861 0.40559,-0.67104 0.0451,-0.26655 -0.0193,-0.4899 -0.19062,-0.67033 -0.16818,-0.18459 -0.38918,-0.27682 -0.66392,-0.27682 z m 128.10943,0 c -0.27884,0 -0.53249,0.0946 -0.76213,0.28321 -0.22561,0.18459 -0.36124,0.40559 -0.40632,0.66394 -0.041,0.26243 0.0193,0.4865 0.18435,0.67104 0.16818,0.18459 0.39379,0.27681 0.67674,0.27681 0.27473,0 0.52679,-0.0922 0.75643,-0.27681 0.22971,-0.18459 0.3653,-0.40861 0.4063,-0.67104 0.045,-0.26655 -0.019,-0.4899 -0.19061,-0.67033 -0.16818,-0.18459 -0.38991,-0.27682 -0.66464,-0.27682 z m -24.26926,0.007 -1.16917,1.86368 h 1.29155 l 1.58759,-1.86368 z m -64.15685,0.111 c -0.37726,0 -0.7053,0.14115 -0.98414,0.42412 -0.27884,0.27884 -0.46731,0.68057 -0.56573,1.20546 h 1.01476 c 0.0328,-0.17639 0.0926,-0.31982 0.17855,-0.43054 0.0862,-0.11076 0.19473,-0.16577 0.32592,-0.16577 0.12716,0 0.2543,0.0528 0.38141,0.15949 0.12716,0.10255 0.2745,0.20727 0.44263,0.31383 0.17229,0.10665 0.38938,0.16022 0.65183,0.16022 0.36086,0 0.68499,-0.14116 0.97206,-0.42412 0.28704,-0.28295 0.47781,-0.68538 0.57213,-1.20616 h -0.99626 c -0.0451,0.19279 -0.10713,0.3408 -0.18507,0.44333 -0.0779,0.10255 -0.18797,0.1537 -0.33161,0.1537 -0.13947,0 -0.27119,-0.0512 -0.39422,-0.1537 -0.12306,-0.10665 -0.26808,-0.21355 -0.43622,-0.32022 -0.16408,-0.10665 -0.3796,-0.1595 -0.64613,-0.1595 z m -95.57986,0.264 c -0.76273,0 -1.45369,0.15418 -2.0729,0.46183 -0.61508,0.30756 -1.14171,0.72717 -1.58048,1.26026 -0.43466,0.52899 -0.7689,1.13386 -1.00265,1.81458 -0.23381,0.67661 -0.35081,1.3885 -0.35081,2.13482 0,0.79552 0.15201,1.47179 0.45542,2.0295 0.30755,0.55357 0.73336,0.97851 1.27876,1.27376 0.54947,0.29115 1.18926,0.43621 1.9192,0.43621 0.75042,0 1.42508,-0.15346 2.02378,-0.46111 0.60282,-0.30755 1.10763,-0.70769 1.51359,-1.19976 0.40597,-0.4962 0.6906,-1.029 0.85466,-1.59898 h -1.90072 c -0.17228,0.50027 -0.47545,0.89192 -0.91014,1.17486 -0.43466,0.27884 -0.92707,0.41842 -1.47657,0.41842 -0.57411,0 -1.02931,-0.17445 -1.36558,-0.52302 -0.33624,-0.35265 -0.50382,-0.87308 -0.50382,-1.56197 0,-0.47569 0.0651,-0.94792 0.19641,-1.41538 0.13537,-0.47159 0.33229,-0.90201 0.59064,-1.29158 0.26243,-0.38956 0.58427,-0.70129 0.96564,-0.93503 0.38546,-0.23382 0.82829,-0.35012 1.32856,-0.35012 0.5044,0 0.90454,0.14116 1.19976,0.42412 0.29525,0.27884 0.44263,0.66658 0.44263,1.16275 h 1.9007 c 0.0246,-0.693 -0.11052,-1.28161 -0.40562,-1.76548 -0.29114,-0.48389 -0.70598,-0.85302 -1.24317,-1.10727 -0.53309,-0.25423 -1.15198,-0.38141 -1.85729,-0.38141 z m 124.05685,0.0121 c -0.48389,0 -0.92051,0.0963 -1.31005,0.2889 -0.38547,0.19279 -0.7027,0.45489 -0.95285,0.78705 -0.25017,0.33214 -0.41066,0.70747 -0.48032,1.12576 -0.0697,0.42646 -0.0473,0.81579 0.0676,1.16844 0.11485,0.34857 0.27068,0.6789 0.4675,0.99056 l -0.0241,0.0121 c -0.56178,0.36085 -1.02552,0.71601 -1.39048,1.06456 -0.36083,0.34445 -0.58649,0.77878 -0.67673,1.30366 -0.0779,0.49207 -0.0217,0.9411 0.16649,1.34705 0.18869,0.40188 0.49808,0.72371 0.92865,0.96566 0.43466,0.23791 0.97827,0.35723 1.63027,0.35723 0.37316,0 0.7726,-0.0574 1.19907,-0.17228 0.43056,-0.11486 0.83458,-0.30169 1.21187,-0.56004 l 0.43052,0.59703 h 1.90709 l -1.08308,-1.50705 c 0.29935,-0.33216 0.56381,-0.74239 0.79345,-1.23038 0.22971,-0.48797 0.39633,-1.05566 0.49885,-1.70356 h -1.5506 c -0.0492,0.29525 -0.13537,0.57829 -0.25831,0.84895 -0.11895,0.27063 -0.26629,0.52037 -0.44263,0.75001 l -1.22396,-1.70358 0.68885,-0.44333 c 0.41826,-0.26653 0.75481,-0.56588 1.00904,-0.89805 0.25428,-0.33214 0.41565,-0.70127 0.48531,-1.10725 0.0697,-0.41415 0.0333,-0.7934 -0.11027,-1.13784 -0.14357,-0.34858 -0.38387,-0.62541 -0.72014,-0.83046 -0.33624,-0.20921 -0.75658,-0.31311 -1.26095,-0.31311 z m -115.60015,0.11027 -1.51926,9.16475 h 1.84518 l 1.52,-9.16475 z m 130.63848,0 -1.51926,9.16475 h 6.14469 l 0.25833,-1.55558 h -4.26892 l 0.38141,-2.3134 h 3.9302 l 0.2583,-1.52498 h -3.93017 l 0.36291,-2.21452 h 4.25681 l 0.25832,-1.55627 z m 10.78154,0 -1.51929,9.16475 h 1.8459 l 1.51928,-9.16475 z m -102.53581,0.65183 -0.27042,1.6367 h -0.95354 l -0.22778,1.40826 h 0.94715 l -0.60273,3.61709 c -0.10255,0.62739 -1.5e-4,1.10901 0.30741,1.44525 0.30755,0.33627 0.80775,0.50452 1.50077,0.50452 0.18869,0 0.38561,-0.0145 0.59064,-0.0434 0.2092,-0.0246 0.41848,-0.0656 0.62763,-0.12306 l -0.0306,-1.38406 c -0.0697,0.0169 -0.1706,0.035 -0.30172,0.0555 -0.12716,0.0169 -0.22561,0.0249 -0.29532,0.0249 -0.41823,0 -0.59199,-0.2133 -0.52233,-0.63971 l 0.57139,-3.45707 h 1.28585 l 0.22778,-1.40826 h -1.27946 l 0.2704,-1.6367 z m 119.77584,0 -0.27042,1.6367 h -0.95354 l -0.22778,1.40826 h 0.94715 l -0.60276,3.61709 c -0.10255,0.62739 5.8e-4,1.10901 0.30814,1.44525 0.30757,0.33627 0.80778,0.50452 1.50077,0.50452 0.18869,0 0.38489,-0.0145 0.58994,-0.0434 0.2092,-0.0246 0.4185,-0.0656 0.62763,-0.12306 l -0.0306,-1.38406 c -0.0697,0.0169 -0.1706,0.035 -0.30174,0.0555 -0.12716,0.0169 -0.22489,0.0249 -0.2946,0.0249 -0.41823,0 -0.59271,-0.2133 -0.52303,-0.63971 l 0.57214,-3.457 h 1.28515 l 0.22778,-1.40826 h -1.27946 l 0.27042,-1.6367 z m -43.19509,0.72584 c 0.25422,0 0.4489,0.0659 0.58422,0.19713 0.13536,0.12716 0.19255,0.2931 0.17228,0.49813 -0.0287,0.22971 -0.12885,0.42661 -0.30101,0.59064 -0.17229,0.15998 -0.37309,0.30729 -0.60273,0.4426 l -0.60912,0.36293 c -0.13127,-0.2215 -0.2273,-0.41999 -0.28893,-0.59633 -0.0615,-0.18049 -0.0823,-0.35489 -0.062,-0.52303 0.0246,-0.30345 0.14405,-0.54151 0.35724,-0.71375 0.2133,-0.17228 0.46297,-0.2583 0.75001,-0.2583 z m 35.13189,0.79344 c -0.58229,0 -1.11509,0.11703 -1.59898,0.35082 -0.48386,0.22971 -0.90261,0.54759 -1.25526,0.95354 -0.35265,0.40188 -0.6249,0.86328 -0.81762,1.38407 -0.18869,0.52078 -0.28323,1.06989 -0.28323,1.64808 0,0.88164 0.26286,1.57104 0.78775,2.06721 0.52899,0.49207 1.25256,0.73793 2.17109,0.73793 h 7.2e-4 c 0.80373,0 1.49632,-0.18218 2.07861,-0.54721 0.58639,-0.36496 0.99273,-0.84728 1.21826,-1.44598 l -1.65448,-0.22126 c -0.11485,0.25833 -0.30789,0.4615 -0.57855,0.60912 -0.27063,0.14357 -0.58009,0.21499 -0.92864,0.21499 -0.50027,0 -0.84462,-0.13102 -1.03324,-0.39352 -0.18869,-0.26654 -0.28321,-0.59617 -0.28321,-0.98984 0,-0.082 10e-4,-0.1689 0.005,-0.25903 1.01695,-0.0246 1.8762,-0.10448 2.57742,-0.23984 0.70123,-0.13537 1.23171,-0.35017 1.59257,-0.64542 0.36088,-0.29524 0.54153,-0.70158 0.54153,-1.21827 0,-0.41418 -0.11075,-0.7709 -0.33231,-1.07025 -0.2215,-0.29935 -0.52469,-0.5289 -0.91013,-0.68883 -0.38139,-0.16408 -0.8141,-0.24621 -1.29797,-0.24621 z m -134.26693,0.0121 c -0.38136,0 -0.75901,0.10472 -1.13217,0.3138 -0.37316,0.2051 -0.69271,0.55097 -0.95924,1.03894 l 0.14164,-1.24814 h -1.70998 l -1.14426,6.87622 h 1.8452 l 0.67673,-4.09598 c 0.0697,-0.41416 0.24578,-0.74063 0.52872,-0.97845 0.28297,-0.24194 0.59858,-0.36293 0.94715,-0.36293 0.28704,0 0.5065,0.0883 0.65823,0.26473 0.15177,0.17638 0.19906,0.43457 0.14164,0.77493 l -0.73153,4.3977 h 1.78328 l 0.69524,-4.16999 c 0.0574,-0.35675 0.21716,-0.6561 0.47962,-0.89804 0.26245,-0.24605 0.58427,-0.36933 0.96563,-0.36933 0.27884,0 0.49832,0.0845 0.65825,0.25261 0.16408,0.16818 0.21355,0.44659 0.14791,0.83616 l -0.72583,4.34859 h 1.85159 l 0.75643,-4.57633 c 0.082,-0.50027 0.0533,-0.92837 -0.0861,-1.28515 -0.13947,-0.36086 -0.36739,-0.63772 -0.68315,-0.83044 -0.31166,-0.19279 -0.6847,-0.2889 -1.11936,-0.2889 -0.46338,0 -0.91009,0.12089 -1.34066,0.36291 -0.43056,0.24194 -0.7834,0.63356 -1.05817,1.17486 -0.082,-0.50028 -0.25186,-0.88181 -0.51021,-1.14427 -0.25833,-0.26243 -0.61738,-0.3935 -1.07665,-0.3935 z m 153.03264,0.0121 c -0.38544,0 -0.74448,0.111 -1.07665,0.33231 -0.33214,0.21741 -0.59428,0.53688 -0.78703,0.95924 h -0.0741 l 0.19062,-1.19906 h -1.78401 l -1.13784,6.87625 h 1.8452 l 0.64611,-3.91169 c 0.0697,-0.42646 0.26441,-0.77311 0.58424,-1.03966 0.32396,-0.26654 0.6993,-0.39992 1.12576,-0.39992 0.13126,0 0.27237,0.007 0.42412,0.0248 0.15177,0.0169 0.27109,0.0388 0.35724,0.0676 l 0.27608,-1.64879 c -0.18459,-0.041 -0.38078,-0.0613 -0.58991,-0.0613 z m -139.56909,0.007 c -0.50848,0 -0.99631,0.13102 -1.46379,0.3935 -0.46746,0.26246 -0.87307,0.65567 -1.21754,1.18056 -0.34037,0.52078 -0.57452,1.17297 -0.70164,1.95621 -0.12716,0.76271 -0.11075,1.4087 0.0492,1.93769 0.15997,0.52489 0.42897,0.92502 0.80623,1.19976 0.38139,0.27476 0.8343,0.41203 1.35919,0.41203 0.37316,0 0.6996,-0.062 0.97844,-0.18507 0.27884,-0.12716 0.51461,-0.28301 0.70735,-0.46753 0.1928,-0.18869 0.3486,-0.37709 0.46751,-0.56574 h 0.0861 l -0.17855,1.10086 h 1.8146 l 1.13787,-6.87622 h -1.83951 l -0.19062,1.15635 h -0.061 c -0.0533,-0.18459 -0.14332,-0.3714 -0.27039,-0.56002 -0.12716,-0.19279 -0.31009,-0.35482 -0.54793,-0.48604 -0.23792,-0.13126 -0.54959,-0.19641 -0.93506,-0.19641 z m 35.37811,0 c -0.50848,0 -0.99628,0.13102 -1.46376,0.3935 -0.46748,0.26246 -0.87382,0.65567 -1.21827,1.18056 -0.34034,0.52078 -0.5738,1.17297 -0.70093,1.95621 -0.12717,0.76271 -0.11076,1.4087 0.0492,1.93769 0.15998,0.52489 0.42827,0.92502 0.80556,1.19976 0.38136,0.27476 0.83497,0.41203 1.35986,0.41203 0.37316,0 0.69891,-0.062 0.97775,-0.18507 0.27884,-0.12716 0.5146,-0.28301 0.70732,-0.46753 0.1928,-0.18869 0.34863,-0.37709 0.46754,-0.56574 h 0.0861 l -0.17784,1.10086 h 1.81388 l 1.13857,-6.87622 h -1.8395 l -0.19062,1.15635 h -0.061 c -0.0533,-0.18459 -0.14405,-0.3714 -0.27114,-0.56002 -0.12717,-0.19279 -0.30937,-0.35482 -0.54721,-0.48604 -0.23792,-0.13126 -0.54959,-0.19641 -0.93506,-0.19641 z m 11.51377,0 c -0.63562,0 -1.19479,0.11872 -1.67868,0.35651 -0.48387,0.23382 -0.89021,0.55167 -1.21827,0.95355 -0.32804,0.39777 -0.57621,0.84839 -0.74432,1.35276 -0.16818,0.50028 -0.25191,1.0152 -0.25191,1.54419 0,0.87343 0.25823,1.57451 0.77494,2.1035 0.41654,0.42316 0.96872,0.6673 1.64379,0.74931 l -0.32734,0.99126 h 0.56574 c 0.20099,0 0.33665,0.0287 0.40631,0.0861 0.0697,0.0574 0.0939,0.15419 0.0734,0.28963 -0.0246,0.13536 -0.0835,0.2314 -0.17783,0.2889 -0.0902,0.0574 -0.23381,0.0861 -0.43052,0.0861 h -0.78135 l -0.11751,0.73225 h 0.86175 c 0.51669,0 0.9037,-0.0845 1.16205,-0.25263 0.25835,-0.16818 0.41884,-0.44265 0.48034,-0.82402 0.0533,-0.32396 -0.0121,-0.56981 -0.19713,-0.73795 -0.18459,-0.16408 -0.46917,-0.23598 -0.85464,-0.21571 l 0.0996,-0.44119 c 0.70277,-0.0417 1.32779,-0.21861 1.84378,-0.58566 0.58639,-0.41416 1.00441,-0.98258 1.25456,-1.70429 l -1.6666,-0.34442 c -0.13536,0.37316 -0.35089,0.67092 -0.64613,0.89235 -0.29525,0.21741 -0.6256,0.32592 -0.99054,0.32592 -0.38957,0 -0.6742,-0.12716 -0.85464,-0.38141 -0.17638,-0.25426 -0.26472,-0.5885 -0.26472,-1.00265 0,-0.29935 0.0396,-0.61342 0.11751,-0.94146 0.082,-0.32806 0.20462,-0.63361 0.36862,-0.91655 0.16408,-0.28294 0.37338,-0.51251 0.62763,-0.68882 0.25426,-0.17639 0.55517,-0.264 0.90375,-0.264 0.35265,0 0.60931,0.1023 0.76924,0.3074 0.15998,0.201 0.24993,0.47938 0.27042,0.83614 l 1.75338,-0.29532 c -0.0121,-0.70533 -0.27056,-1.2645 -0.77493,-1.67869 -0.50438,-0.41415 -1.17129,-0.62123 -1.99961,-0.62123 z m 10.17309,0 c -0.50848,0 -0.99628,0.13102 -1.46376,0.3935 -0.46748,0.26246 -0.8731,0.65567 -1.21757,1.18056 -0.34034,0.52078 -0.57452,1.17297 -0.70163,1.95621 -0.12716,0.76271 -0.11076,1.4087 0.0492,1.93769 0.15998,0.52489 0.429,0.92502 0.80626,1.19976 0.38137,0.27476 0.83427,0.41203 1.35916,0.41203 0.37316,0 0.69961,-0.062 0.97847,-0.18507 0.27884,-0.12716 0.51458,-0.28301 0.70733,-0.46753 0.19279,-0.18869 0.3486,-0.37709 0.46751,-0.56574 h 0.0861 l -0.17856,1.10086 h 1.81458 l 1.13787,-6.87622 h -1.83951 l -0.19062,1.15635 h -0.061 c -0.0533,-0.18459 -0.14332,-0.3714 -0.27041,-0.56002 -0.12716,-0.19279 -0.31009,-0.35482 -0.54793,-0.48604 -0.23792,-0.13126 -0.5496,-0.19641 -0.93506,-0.19641 z m 11.52016,0 c -0.61508,0 -1.16417,0.11486 -1.64806,0.3444 -0.47979,0.22971 -0.88769,0.54298 -1.22396,0.94076 -0.33627,0.39774 -0.59291,0.84908 -0.76924,1.35346 -0.17229,0.50438 -0.25831,1.03329 -0.25831,1.58687 0,0.86936 0.25435,1.56653 0.76283,2.09141 0.51258,0.52079 1.23458,0.78134 2.16542,0.78134 0.611,0 1.15618,-0.11486 1.63597,-0.3444 0.48389,-0.22971 0.89411,-0.54139 1.23036,-0.93506 0.33626,-0.39775 0.59061,-0.84909 0.76285,-1.35347 0.17638,-0.50848 0.26399,-1.03968 0.26399,-1.59329 0,-0.86933 -0.25594,-1.56421 -0.76852,-2.08499 -0.50847,-0.52489 -1.22656,-0.78703 -2.15333,-0.78703 z m 85.29574,0 c -0.6356,0 -1.1955,0.11872 -1.6794,0.35651 -0.4838,0.23382 -0.8894,0.55167 -1.2175,0.95355 -0.3281,0.39777 -0.5762,0.84839 -0.7444,1.35276 -0.1681,0.50028 -0.2526,1.0152 -0.2526,1.54419 0,0.87343 0.259,1.57451 0.7757,2.1035 0.5167,0.52489 1.2317,0.78773 2.1462,0.78773 0.8201,0 1.5212,-0.20703 2.1035,-0.62121 0.5864,-0.41418 1.0051,-0.9826 1.2553,-1.70431 l -1.6673,-0.34442 c -0.1354,0.37316 -0.3502,0.67092 -0.6455,0.89235 -0.2952,0.21741 -0.6256,0.32592 -0.9905,0.32592 -0.3896,0 -0.6742,-0.12717 -0.8547,-0.38142 -0.1763,-0.25425 -0.2647,-0.58849 -0.2647,-1.00265 0,-0.29934 0.039,-0.61339 0.1166,-0.94145 0.082,-0.32806 0.2053,-0.63359 0.3693,-0.91656 0.1641,-0.28294 0.3727,-0.51248 0.6269,-0.68882 0.2543,-0.17638 0.5559,-0.264 0.9045,-0.264 0.3526,0 0.6093,0.10231 0.7692,0.30741 0.16,0.201 0.2499,0.47938 0.2704,0.83613 l 1.7527,-0.29532 c -0.012,-0.7053 -0.2705,-1.2645 -0.7749,-1.67868 -0.5044,-0.41415 -1.1706,-0.62121 -1.9989,-0.62121 z m 10.05,0 c -0.5085,0 -0.9963,0.13102 -1.4638,0.3935 -0.4674,0.26246 -0.8738,0.65567 -1.2182,1.18056 -0.3404,0.52078 -0.5738,1.17297 -0.701,1.95621 -0.1271,0.76271 -0.1107,1.4087 0.049,1.93769 0.16,0.52489 0.4283,0.92502 0.8056,1.19976 0.3813,0.27476 0.8349,0.41203 1.3598,0.41203 0.3732,0 0.6989,-0.062 0.9778,-0.18507 0.2788,-0.12716 0.5146,-0.28301 0.7073,-0.46753 0.1928,-0.18869 0.3486,-0.37709 0.4676,-0.56574 h 0.086 l -0.1779,1.10086 h 1.8146 l 1.1379,-6.87622 h -1.8397 l -0.1906,1.15635 h -0.061 c -0.053,-0.18459 -0.1441,-0.3714 -0.2712,-0.56002 -0.1271,-0.19279 -0.3094,-0.35482 -0.5472,-0.48604 -0.2379,-0.13126 -0.5496,-0.19641 -0.935,-0.19641 z m -187.57962,0.0861 -1.13787,6.87622 h 1.8452 l 1.13787,-6.87622 z m 39.91103,0 -1.13784,6.87622 h 1.8452 l 1.13784,-6.87622 z m 6.57454,0 -0.24552,1.48796 h 3.24137 l -0.0121,0.0497 -4.04119,4.2191 -0.18435,1.11936 h 5.7398 l 0.24622,-1.48796 h -3.26058 l 0.005,-0.0497 3.82632,-4.11449 0.20293,-1.22397 z m 121.53561,0 -1.13857,6.87622 h 1.84593 l 1.13784,-6.87622 z m -23.75974,1.27304 c 0.31573,0 0.5639,0.0637 0.74432,0.19063 0.18049,0.12716 0.27042,0.2993 0.27042,0.51663 0,0.2133 -0.0775,0.3831 -0.23333,0.51022 -0.15178,0.12306 -0.43088,0.21523 -0.83686,0.27681 -0.40185,0.0615 -0.97965,0.0987 -1.73418,0.11099 0.082,-0.27473 0.19666,-0.53528 0.34442,-0.78133 0.15178,-0.24605 0.34409,-0.44461 0.57783,-0.59633 0.23792,-0.15178 0.52708,-0.22778 0.86745,-0.22778 z m -52.09514,0.0924 c 0.38136,0 0.66672,0.12475 0.85534,0.37502 0.18869,0.25015 0.28323,0.5821 0.28323,0.99626 0,0.28294 -0.0396,0.58849 -0.11751,0.91655 -0.0779,0.32394 -0.19883,0.63181 -0.36293,0.92295 -0.15998,0.28704 -0.36467,0.52279 -0.61482,0.70733 -0.24605,0.18459 -0.54149,0.27681 -0.88593,0.27681 -0.38137,0 -0.66602,-0.12716 -0.85467,-0.38141 -0.18869,-0.25425 -0.2832,-0.5869 -0.2832,-0.99696 0,-0.28704 0.0388,-0.59189 0.11654,-0.91585 0.0779,-0.32804 0.19738,-0.63588 0.35721,-0.92295 0.16408,-0.28704 0.3688,-0.52049 0.61484,-0.70091 0.25013,-0.18459 0.54719,-0.27684 0.89163,-0.27684 z m -68.18524,0.0241 c 0.47158,0 0.80353,0.18677 0.99625,0.56005 0.1969,0.36906 0.24412,0.86697 0.14164,1.49438 -0.10255,0.61918 -0.31349,1.11941 -0.63335,1.50077 -0.31573,0.37724 -0.71126,0.56644 -1.18695,0.56644 -0.47976,0 -0.81632,-0.19303 -1.00904,-0.57855 -0.18869,-0.38957 -0.2314,-0.88589 -0.12885,-1.48866 0.0985,-0.6028 0.30319,-1.09451 0.61484,-1.47587 0.31576,-0.38547 0.71746,-0.57856 1.20546,-0.57856 z m 35.37813,0 c 0.47159,0 0.80351,0.18677 0.99623,0.56005 0.1969,0.36906 0.24414,0.86697 0.14164,1.49438 -0.10255,0.61918 -0.31346,1.11941 -0.63332,1.50077 -0.31576,0.37724 -0.71199,0.56644 -1.18767,0.56644 -0.47979,0 -0.81562,-0.19303 -1.00835,-0.57855 -0.18869,-0.38957 -0.23212,-0.88589 -0.12957,-1.48866 0.0984,-0.6028 0.30388,-1.09451 0.61554,-1.47587 0.31576,-0.38547 0.71749,-0.57856 1.20546,-0.57856 z m 21.68686,0 c 0.47157,0 0.80351,0.18677 0.99623,0.56005 0.1969,0.36906 0.24415,0.86697 0.14164,1.49438 -0.10255,0.61918 -0.31346,1.11941 -0.63332,1.50077 -0.31576,0.37724 -0.71129,0.56644 -1.18697,0.56644 -0.47977,0 -0.81632,-0.19303 -1.00904,-0.57855 -0.1887,-0.38957 -0.23141,-0.88589 -0.12886,-1.48866 0.0984,-0.6028 0.30317,-1.09451 0.61482,-1.47587 0.31576,-0.38547 0.71749,-0.57856 1.20546,-0.57856 z m 106.86587,0 c 0.4716,0 0.8035,0.18677 0.9963,0.56005 0.1969,0.36906 0.2441,0.86697 0.1416,1.49438 -0.1025,0.61918 -0.3135,1.11941 -0.6333,1.50077 -0.3158,0.37724 -0.712,0.56644 -1.1877,0.56644 -0.4798,0 -0.8156,-0.19303 -1.0083,-0.57855 -0.1887,-0.38957 -0.2322,-0.88589 -0.1296,-1.48866 0.099,-0.6028 0.3039,-1.09451 0.6155,-1.47587 0.3158,-0.38547 0.7175,-0.57856 1.2055,-0.57856 z m -79.83415,1.77192 1.36558,1.91848 c -0.49618,0.29525 -0.984,0.44333 -1.46379,0.44333 -0.35675,0 -0.62973,-0.0883 -0.81835,-0.26472 -0.18869,-0.18049 -0.26617,-0.42468 -0.23333,-0.73223 0.0246,-0.24195 0.11462,-0.46071 0.27042,-0.65753 0.15998,-0.201 0.41039,-0.4103 0.75074,-0.62763 z" />
  </g>
</svg>
