<?xml version="1.0" encoding="UTF-8" standalone="no"?>
<!-- Created with Inkscape (http://www.inkscape.org/) -->

<svg
   width="1280"
   height="720"
   viewBox="0 0 338.66666 190.5"
   version="1.1"
   id="svg1"
   xmlns="http://www.w3.org/2000/svg"
   xmlns:svg="http://www.w3.org/2000/svg">
  <defs
     id="defs1" />
  <g
     id="layer1"
     transform="translate(-348.66666)">
    <g
       id="g13"
       transform="matrix(1.3770418,0,0,1.3770418,-129.78024,213.82392)">
      <path
         id="text38-45-5-8-5-4-9"
         style="font-weight:900;font-size:34.4331px;line-height:0;font-family:Alexandria;-inkscape-font-specification:'Alexandria Heavy';text-align:center;letter-spacing:0.302378px;text-anchor:middle;fill:#ffffff;stroke-width:5.73884;stroke-linecap:round;stroke-linejoin:round;paint-order:stroke fill markers"
         d="m 532.80572,-106.98623 c -1.14778,0 -2.08904,0.36717 -2.8236,1.10174 -0.73458,0.73457 -1.10175,1.67583 -1.10175,2.8236 0,1.14776 0.36717,2.08851 1.10175,2.82308 0.73456,0.734576 1.67582,1.10226 2.8236,1.10226 1.14777,0 2.08903,-0.367684 2.8236,-1.10226 0.73457,-0.73457 1.10174,-1.67532 1.10174,-2.82308 0,-1.14777 -0.36717,-2.08903 -1.10174,-2.8236 -0.73457,-0.73457 -1.67583,-1.10174 -2.8236,-1.10174 z m -73.1821,2.58227 v 25.549342 h 7.74733 v -25.549342 z m 93.17984,0 v 8.695074 c -0.3461,-0.393294 -0.71716,-0.754162 -1.13636,-1.051098 -1.07891,-0.803439 -2.364,-1.205095 -3.8561,-1.205095 -1.6987,0 -3.19122,0.401656 -4.47673,1.205095 -1.26254,0.780482 -2.23778,1.882507 -2.92643,3.305741 -0.68866,1.423233 -1.03302,3.1105 -1.03302,5.061706 0,1.974163 0.35551,3.707066 1.06712,5.199166 0.71162,1.469144 1.71019,2.605656 2.99568,3.409094 1.30846,0.803438 2.83496,1.205095 4.57957,1.205095 1.44619,0 2.69731,-0.401657 3.75326,-1.205095 0.37918,-0.282371 0.71621,-0.620871 1.03301,-0.985469 v 1.915128 h 7.74785 v -25.549342 z m -113.21273,1.4118 -10.19214,24.137542 h 8.19537 l 1.233,-3.409094 h 9.078 l 1.18959,3.409094 h 8.5049 l -9.81335,-24.137542 z m 45.4024,4.958352 c -1.51505,0 -2.82348,0.401655 -3.92534,1.205094 -0.6555,0.47797 -1.21047,1.09318 -1.68724,1.814876 v -2.675805 h -7.74733 v 18.835025 h 7.74733 v -9.331213 c 0,-0.918215 0.21807,-1.653071 0.65423,-2.204 0.43615,-0.550929 1.00973,-0.826306 1.72134,-0.826306 0.64275,0 1.15954,0.229739 1.54978,0.688847 0.39023,0.459108 0.58549,1.090503 0.58549,1.893941 v 9.778731 h 7.74733 v -9.331213 c 0,-0.918215 0.21807,-1.653071 0.65422,-2.204 0.43616,-0.550929 1.00973,-0.826306 1.72135,-0.826306 0.64274,0 1.15953,0.229739 1.54977,0.688847 0.39024,0.459108 0.5855,1.090503 0.5855,1.893941 v 9.778731 h 7.74733 v -12.017354 c 0,-1.446188 -0.28705,-2.708463 -0.86093,-3.787365 -0.55094,-1.078903 -1.33143,-1.905552 -2.34146,-2.479436 -0.98709,-0.59684 -2.13475,-0.895035 -3.4432,-0.895035 -1.51506,0 -2.82349,0.401655 -3.92534,1.205094 -0.93957,0.685106 -1.68435,1.636198 -2.25671,2.82205 -0.0896,-0.222476 -0.18043,-0.443944 -0.29146,-0.652673 -0.55093,-1.078903 -1.33142,-1.905552 -2.34146,-2.479436 -0.98708,-0.59684 -2.13474,-0.895035 -3.4432,-0.895035 z m 88.97958,0 c -0.91821,0 -1.89396,0.06897 -2.92695,0.206705 -1.03299,0.137732 -2.08886,0.344136 -3.16777,0.619601 -1.05594,0.275465 -2.12348,0.608147 -3.20239,0.998388 l 1.72186,5.16506 c 1.0789,-0.390242 2.12311,-0.688438 3.13315,-0.895036 1.01003,-0.206599 1.87065,-0.310059 2.58227,-0.310059 0.96412,0 1.68731,0.195253 2.16937,0.585494 0.48661,0.353898 0.73312,0.849571 0.75086,1.48053 h -4.29741 c -2.38736,0.02296 -4.2009,0.528071 -5.44049,1.515153 -1.2396,0.964126 -1.85932,2.376015 -1.85932,4.2354 0,1.19368 0.24088,2.237883 0.72295,3.133142 0.50502,0.872305 1.22821,1.561005 2.16938,2.066024 0.94117,0.482063 2.07768,0.722953 3.40909,0.722953 1.60688,0 2.92697,-0.355501 3.95997,-1.067118 0.52426,-0.364706 0.97106,-0.798118 1.34255,-1.298629 v 2.021582 h 7.60987 v -12.189436 c 0,-2.226672 -0.76882,-3.948424 -2.30683,-5.16506 -1.51506,-1.216634 -3.63847,-1.824694 -6.37016,-1.824694 z m -57.82541,0.06873 c -2.02007,0 -3.78746,0.401656 -5.30252,1.205095 -1.4921,0.803437 -2.66309,1.939949 -3.51244,3.409094 -0.8264,1.446188 -1.23921,3.167941 -1.23921,5.165059 0,1.928252 0.40166,3.615518 1.2051,5.061707 0.82639,1.446188 2.00854,2.571032 3.54655,3.374471 1.53801,0.780482 3.37438,1.170471 5.50923,1.170471 1.83642,0 3.46638,-0.298197 4.88962,-0.895036 1.44619,-0.59684 2.66282,-1.446307 3.64991,-2.548165 l -4.0287,-3.959965 c -1.19368,1.124814 -2.46762,1.687236 -3.82199,1.687236 -0.68866,0 -1.29723,-0.160766 -1.82521,-0.482141 -0.50501,-0.344331 -0.90667,-0.837779 -1.20509,-1.48053 -0.0353,-0.08229 -0.0488,-0.188254 -0.0796,-0.275436 h 12.23439 c 0.13773,-2.318493 -0.18328,-4.32729 -0.96376,-6.025988 -0.75753,-1.721653 -1.90571,-3.052901 -3.44372,-3.994072 -1.53801,-0.94117 -3.40886,-1.4118 -5.61258,-1.4118 z m 12.76718,0.275436 v 18.835025 h 7.74785 v -18.835025 z m -85.46713,2.651517 2.46341,7.059001 h -5.01675 z m 72.7692,2.238107 c 0.45911,0 0.86077,0.114611 1.20509,0.344165 0.34434,0.229553 0.60805,0.551085 0.79168,0.964282 0.18367,0.390241 0.25264,0.849203 0.20671,1.377177 h -4.67413 c 0.0395,-0.209649 0.0717,-0.425682 0.12919,-0.619601 0.2066,-0.64275 0.50479,-1.147866 0.89503,-1.515153 0.39025,-0.367286 0.87255,-0.55087 1.44643,-0.55087 z m 33.79793,0.964282 c 0.57388,0 1.06733,0.149097 1.48053,0.447518 0.4132,0.298419 0.73473,0.722895 0.96429,1.273824 0.22955,0.550929 0.34416,1.193992 0.34416,1.928564 0,0.734572 -0.11461,1.377118 -0.34416,1.928048 -0.22956,0.550929 -0.55109,0.97592 -0.96429,1.274341 -0.4132,0.298419 -0.90665,0.447518 -1.48053,0.447518 -0.57388,0 -1.079,-0.149099 -1.51515,-0.447518 -0.4132,-0.298421 -0.73421,-0.723412 -0.96376,-1.274341 -0.22956,-0.55093 -0.34469,-1.193476 -0.34469,-1.928048 0,-0.734572 0.11513,-1.377635 0.34469,-1.928564 0.22955,-0.550929 0.55056,-0.975405 0.96376,-1.273824 0.43615,-0.298421 0.94127,-0.447518 1.51515,-0.447518 z m 22.33973,5.233789 h 2.68562 v 1.721342 c -0.2066,0.298419 -0.44749,0.562646 -0.72295,0.792199 -0.27547,0.206599 -0.57418,0.367364 -0.89556,0.482142 -0.32137,0.114776 -0.65405,0.172082 -0.99838,0.172082 -0.55093,0 -0.97541,-0.149098 -1.27383,-0.447518 -0.29842,-0.29842 -0.44752,-0.700076 -0.44752,-1.205094 0,-0.505018 0.13744,-0.883856 0.4129,-1.136365 0.29842,-0.252509 0.71174,-0.378788 1.23972,-0.378788 z m -127.71107,12.483992 c -0.2025,0 -0.38721,0.06817 -0.55397,0.205156 -0.16381,0.134005 -0.26182,0.29505 -0.29456,0.482657 -0.0298,0.190585 0.0147,0.352787 0.13384,0.486792 0.1221,0.134006 0.28597,0.201022 0.49145,0.201022 0.19952,0 0.38255,-0.06702 0.54932,-0.201022 0.16674,-0.134005 0.26475,-0.296207 0.29455,-0.486792 0.0328,-0.193563 -0.0134,-0.355764 -0.13849,-0.486791 -0.12209,-0.134006 -0.28262,-0.201022 -0.48214,-0.201022 z m 28.98324,0 c -0.20249,0 -0.3872,0.06817 -0.55397,0.205156 -0.1638,0.134005 -0.26182,0.29505 -0.29455,0.482657 -0.0298,0.190585 0.0147,0.352787 0.13384,0.486792 0.12209,0.134006 0.28597,0.201022 0.49144,0.201022 0.19952,0 0.38256,-0.06702 0.54932,-0.201022 0.16674,-0.134005 0.26527,-0.296207 0.29507,-0.486792 0.0328,-0.193563 -0.0134,-0.355764 -0.13849,-0.486791 -0.12209,-0.134006 -0.28314,-0.201022 -0.48266,-0.201022 z m 93.03308,0 c -0.2025,0 -0.38721,0.06817 -0.55397,0.205156 -0.1638,0.134005 -0.26234,0.29505 -0.29507,0.482657 -0.0298,0.190585 0.0152,0.352787 0.13436,0.486792 0.12209,0.134006 0.28596,0.201022 0.49144,0.201022 0.19951,0 0.38255,-0.06702 0.54932,-0.201022 0.16674,-0.134005 0.26476,-0.296207 0.29456,-0.486792 0.0328,-0.193563 -0.0134,-0.355764 -0.1385,-0.486791 -0.12209,-0.134006 -0.28262,-0.201022 -0.48214,-0.201022 z m -17.62476,0.0041 -0.84853,1.353923 h 0.93793 l 1.15238,-1.353923 z m -46.59044,0.08062 c -0.27396,0 -0.51218,0.103033 -0.71468,0.308508 -0.2025,0.202496 -0.33936,0.494228 -0.41083,0.875399 h 0.73691 c 0.0238,-0.12805 0.0672,-0.23224 0.1297,-0.312643 0.0625,-0.0804 0.14139,-0.120923 0.23668,-0.120923 0.0923,0 0.18467,0.03885 0.27699,0.116272 0.0923,0.07445 0.19985,0.150468 0.32194,0.227893 0.12507,0.07743 0.28278,0.116272 0.47336,0.116272 0.26206,0 0.49744,-0.103034 0.7059,-0.308508 0.20844,-0.205474 0.34647,-0.497206 0.41496,-0.875399 h -0.72347 c -0.0327,0.139961 -0.0772,0.24698 -0.13384,0.321428 -0.0566,0.07445 -0.13711,0.111621 -0.24133,0.111621 -0.10125,0 -0.19643,-0.03717 -0.28577,-0.111621 -0.0893,-0.07743 -0.1952,-0.154602 -0.3173,-0.232027 -0.11912,-0.07743 -0.27566,-0.116272 -0.46922,-0.116272 z m -69.40971,0.192236 c -0.5539,0 -1.05568,0.111521 -1.50534,0.334863 -0.44668,0.223342 -0.8291,0.52858 -1.14773,0.915707 -0.31566,0.384147 -0.55838,0.823418 -0.72812,1.317749 -0.16974,0.491352 -0.25477,1.0078 -0.25477,1.549776 0,0.57771 0.11037,1.069335 0.33073,1.474328 0.22335,0.402016 0.53308,0.710084 0.92914,0.924492 0.39904,0.21143 0.86365,0.317293 1.39372,0.317293 0.54495,0 1.0349,-0.111522 1.46967,-0.334863 0.43776,-0.223342 0.80384,-0.513918 1.09865,-0.871265 0.29481,-0.360325 0.50151,-0.747242 0.62063,-1.161169 h -1.38028 c -0.12507,0.363303 -0.34529,0.647703 -0.66094,0.853178 -0.31566,0.202496 -0.67274,0.30334 -1.07177,0.30334 -0.41691,0 -0.74748,-0.126184 -0.99167,-0.379305 -0.24419,-0.256099 -0.36639,-0.634529 -0.36639,-1.134814 0,-0.345436 0.0478,-0.687848 0.14315,-1.027328 0.0983,-0.342457 0.24079,-0.655027 0.4284,-0.937927 0.19058,-0.2829 0.4243,-0.509288 0.70124,-0.679028 0.27992,-0.16974 0.60201,-0.254765 0.96532,-0.254765 0.36628,0 0.65634,0.103034 0.87075,0.308508 0.21441,0.202497 0.32143,0.483551 0.32143,0.843876 h 1.38027 c 0.0179,-0.503263 -0.0801,-0.930184 -0.29455,-1.281575 -0.21143,-0.351392 -0.51217,-0.619456 -0.90227,-0.804085 -0.38713,-0.18463 -0.83708,-0.276986 -1.34927,-0.276986 z m 90.0901,0.0088 c -0.35139,0 -0.66846,0.06985 -0.95136,0.209806 -0.27992,0.139961 -0.51081,0.330849 -0.69246,0.572058 -0.18168,0.241209 -0.2977,0.513776 -0.3483,0.817521 -0.0507,0.309701 -0.0343,0.592428 0.0491,0.848527 0.0834,0.253121 0.19657,0.493017 0.33951,0.719336 l -0.0181,0.0088 c -0.40797,0.262055 -0.74421,0.519443 -1.00924,0.772563 -0.26204,0.250143 -0.42591,0.566059 -0.49145,0.947229 -0.0566,0.357347 -0.0166,0.683424 0.12041,0.978235 0.13698,0.291833 0.3617,0.525553 0.67438,0.701249 0.31566,0.172718 0.71042,0.258899 1.1839,0.258899 0.27099,0 0.56157,-0.04168 0.87127,-0.125057 0.31268,-0.08338 0.60556,-0.21857 0.87953,-0.406177 l 0.31264,0.433049 h 1.38493 l -0.786,-1.094507 c 0.21739,-0.241209 0.40943,-0.5386 0.5762,-0.892969 0.16676,-0.354369 0.28728,-0.767144 0.36173,-1.23765 h -1.12551 c -0.0357,0.214407 -0.0983,0.419958 -0.18759,0.616499 -0.0864,0.196541 -0.1939,0.378424 -0.32194,0.545187 l -0.88884,-1.237651 0.50023,-0.321427 c 0.30375,-0.193563 0.54815,-0.410948 0.73277,-0.652157 0.18466,-0.241209 0.30235,-0.509274 0.35295,-0.804085 0.0506,-0.300767 0.0236,-0.576163 -0.0806,-0.826306 -0.10423,-0.253121 -0.27826,-0.45417 -0.52245,-0.603064 -0.24419,-0.151873 -0.54943,-0.227893 -0.91571,-0.227893 z m -83.94836,0.08061 -1.10329,6.655408 h 1.33997 l 1.10329,-6.655408 z m 94.86863,0 -1.1033,6.655408 h 4.46226 l 0.18759,-1.130164 h -3.10007 l 0.27699,-1.679484 h 2.8546 l 0.18759,-1.107943 h -2.85461 l 0.26355,-1.607653 h 3.09129 l 0.18758,-1.130164 z m 7.83001,0 -1.10329,6.655408 h 1.33997 l 1.10329,-6.655408 z m -74.4616,0.473356 -0.19637,1.188041 h -0.69247 l -0.16536,1.023194 h 0.68833 l -0.43822,2.626196 c -0.0745,0.455618 4.1e-4,0.805878 0.22376,1.050065 0.22334,0.244187 0.58659,0.365869 1.08986,0.365869 0.13697,0 0.28002,-0.01016 0.42891,-0.03101 0.15187,-0.01787 0.3034,-0.04771 0.45527,-0.0894 l -0.0222,-1.005106 c -0.0506,0.01191 -0.1233,0.02542 -0.21859,0.04031 -0.0923,0.01191 -0.16386,0.01757 -0.21446,0.01757 -0.30372,0 -0.43042,-0.15487 -0.37982,-0.464571 l 0.41548,-2.509924 h 0.93327 l 0.16537,-1.023194 h -0.92915 l 0.19689,-1.188041 z m 86.98125,0 -0.19689,1.188041 h -0.69246 l -0.16485,1.023194 h 0.68781 l -0.4377,2.626196 c -0.0744,0.455618 -9e-5,0.805878 0.22325,1.050065 0.22334,0.244187 0.58659,0.365869 1.08985,0.365869 0.13699,0 0.28002,-0.01016 0.42892,-0.03101 0.15187,-0.01787 0.30339,-0.04771 0.45527,-0.0894 l -0.0222,-1.005106 c -0.0506,0.01191 -0.12329,0.02542 -0.21859,0.04031 -0.0923,0.01191 -0.16385,0.01757 -0.21445,0.01757 -0.30372,0 -0.43043,-0.15487 -0.37983,-0.464571 l 0.41548,-2.509924 h 0.9338 l 0.16484,-1.023194 h -0.92914 l 0.19689,-1.188041 z m -31.36811,0.5271 c 0.18462,0 0.32599,0.04733 0.42426,0.142627 0.0983,0.09231 0.13992,0.213357 0.12506,0.362252 -0.0208,0.166762 -0.094,0.309282 -0.21911,0.428397 -0.12507,0.116138 -0.27093,0.223674 -0.4377,0.321944 l -0.44235,0.26355 c -0.0953,-0.160806 -0.16514,-0.305516 -0.20981,-0.433565 -0.0447,-0.131027 -0.0593,-0.257211 -0.0444,-0.379305 0.0179,-0.220364 0.10405,-0.393244 0.2589,-0.518315 0.15485,-0.125072 0.33673,-0.187585 0.54519,-0.187585 z m 25.51265,0.576192 c -0.42286,0 -0.8103,0.08503 -1.16168,0.254765 -0.3514,0.166762 -0.65496,0.397136 -0.91106,0.691947 -0.2561,0.291834 -0.45432,0.626915 -0.59428,1.005107 -0.13698,0.378192 -0.20515,0.77746 -0.20515,1.197343 0,0.640246 0.19037,1.140359 0.57154,1.500683 0.38414,0.357347 0.90959,0.535885 1.57665,0.535885 h 5.1e-4 c 0.58367,0 1.08713,-0.132359 1.50999,-0.397392 0.42584,-0.265032 0.7204,-0.614776 0.88418,-1.049548 l -1.20148,-0.160714 c -0.0834,0.187607 -0.22359,0.33463 -0.42013,0.441834 -0.19653,0.104226 -0.42125,0.156579 -0.67437,0.156579 -0.36331,0 -0.61336,-0.09519 -0.75034,-0.28577 -0.13699,-0.193563 -0.20568,-0.433459 -0.20568,-0.719336 0,-0.05956 10e-4,-0.122073 0.004,-0.187586 0.73852,-0.01787 1.3625,-0.07588 1.87172,-0.174149 0.50922,-0.09827 0.89498,-0.254815 1.15703,-0.469222 0.26206,-0.214409 0.39274,-0.50897 0.39274,-0.884184 0,-0.300767 -0.08,-0.559828 -0.24081,-0.777214 -0.1608,-0.217386 -0.38154,-0.38409 -0.66146,-0.500228 -0.27694,-0.119115 -0.59067,-0.1788 -0.94206,-0.1788 z m -97.50464,0.0088 c -0.27694,0 -0.55066,0.07602 -0.82165,0.227893 -0.27099,0.148895 -0.50356,0.400624 -0.69712,0.754993 l 0.10284,-0.906922 h -1.24179 l -0.83096,4.994011 h 1.34049 l 0.49093,-2.975012 c 0.0506,-0.300767 0.179,-0.537317 0.38447,-0.710035 0.20547,-0.175695 0.43469,-0.263549 0.68781,-0.263549 0.20845,0 0.36782,0.06419 0.47801,0.192236 0.11015,0.128049 0.1445,0.315591 0.10284,0.562756 l -0.53175,3.193604 h 1.29552 l 0.50437,-3.028756 c 0.0417,-0.259076 0.15823,-0.476461 0.34881,-0.652156 0.19059,-0.178674 0.4243,-0.267684 0.70125,-0.267684 0.20249,0 0.36187,0.06084 0.47801,0.182934 0.11913,0.122094 0.15463,0.324815 0.10697,0.607715 l -0.5271,3.157947 h 1.34462 l 0.54932,-3.323312 c 0.0596,-0.363302 0.0387,-0.674716 -0.0625,-0.933793 -0.10125,-0.262054 -0.26628,-0.463102 -0.49558,-0.603064 -0.22632,-0.13996 -0.49772,-0.209806 -0.81338,-0.209806 -0.3365,0 -0.66091,0.08786 -0.97359,0.26355 -0.31267,0.175696 -0.56891,0.460096 -0.76843,0.853178 -0.0596,-0.363303 -0.18291,-0.640372 -0.37052,-0.830957 -0.1876,-0.190585 -0.44833,-0.285771 -0.78186,-0.285771 z m 111.13172,0.0093 c -0.27992,0 -0.54066,0.08 -0.78187,0.240812 -0.24121,0.157828 -0.43158,0.390392 -0.57154,0.697115 h -0.0537 l 0.13849,-0.871265 h -1.29553 l -0.8263,4.994011 h 1.33997 l 0.46922,-2.840654 c 0.0506,-0.3097 0.19199,-0.561429 0.42426,-0.754992 0.23526,-0.193564 0.50782,-0.290422 0.81752,-0.290422 0.0953,0 0.19833,0.0057 0.30851,0.01757 0.11019,0.01191 0.19637,0.02825 0.2589,0.04909 l 0.20102,-1.196826 c -0.134,-0.02978 -0.27704,-0.04444 -0.42891,-0.04444 z m -101.35402,0.0041 c -0.36926,0 -0.72351,0.09518 -1.06299,0.285771 -0.33948,0.190585 -0.63456,0.476659 -0.8847,0.857828 -0.24716,0.378193 -0.4167,0.851808 -0.50901,1.420585 -0.0923,0.553888 -0.0805,1.023001 0.0357,1.40715 0.11614,0.381169 0.31101,0.671228 0.58497,0.870748 0.27695,0.199518 0.60586,0.299206 0.98702,0.299206 h 5.2e-4 c 0.27099,0 0.50754,-0.04451 0.71004,-0.133842 0.2025,-0.09231 0.3737,-0.205509 0.51366,-0.339514 0.13996,-0.136983 0.25315,-0.273845 0.33951,-0.410828 h 0.0625 l -0.12971,0.799435 h 1.31775 l 0.82631,-4.994011 h -1.33532 l -0.13849,0.839742 h -0.045 c -0.0387,-0.134005 -0.10406,-0.269193 -0.19637,-0.406176 -0.0923,-0.139961 -0.22467,-0.257658 -0.39739,-0.35295 -0.17272,-0.09529 -0.39911,-0.143144 -0.67903,-0.143144 z m 25.69094,0 c -0.36926,0 -0.72351,0.09518 -1.06299,0.285771 -0.33948,0.190585 -0.63404,0.476659 -0.88418,0.857828 -0.24717,0.378193 -0.41722,0.851808 -0.50953,1.420585 -0.0923,0.553888 -0.0805,1.023001 0.0357,1.40715 0.11614,0.381169 0.31152,0.671228 0.58549,0.870748 0.27695,0.199518 0.60585,0.299206 0.98702,0.299206 0.27099,0 0.50805,-0.04451 0.71055,-0.133842 0.20249,-0.09231 0.3737,-0.205509 0.51366,-0.339514 0.13996,-0.136983 0.25316,-0.273845 0.33952,-0.410828 h 0.0625 l -0.12971,0.799435 h 1.31775 l 0.8263,-4.994011 h -1.33583 l -0.13849,0.839742 h -0.0445 c -0.0387,-0.134005 -0.10405,-0.269193 -0.19637,-0.406176 -0.0923,-0.139961 -0.22519,-0.257658 -0.39791,-0.35295 -0.17272,-0.09529 -0.3991,-0.143144 -0.67902,-0.143144 z m 8.36176,0 c -0.46157,0 -0.86818,0.08618 -1.21956,0.258899 -0.3514,0.16974 -0.64595,0.400631 -0.88419,0.692464 -0.23823,0.288856 -0.41844,0.616605 -0.54053,0.982886 -0.1221,0.363303 -0.18345,0.737231 -0.18345,1.121378 0,0.634291 0.18753,1.143407 0.56275,1.527556 0.30241,0.307213 0.70368,0.484028 1.19373,0.543636 l -0.23771,0.720369 h 0.41082 c 0.14594,0 0.24448,0.02084 0.29508,0.06253 0.0506,0.04169 0.0686,0.111536 0.0537,0.209806 -0.0179,0.09827 -0.0612,0.168113 -0.12971,0.209806 -0.0655,0.04169 -0.16971,0.06305 -0.31264,0.06305 h -0.56741 l -0.0847,0.531234 h 0.62529 c 0.37522,0 0.65678,-0.06084 0.84439,-0.182934 0.18761,-0.122094 0.30363,-0.321986 0.3483,-0.59893 0.0387,-0.235253 -0.009,-0.413792 -0.14314,-0.535885 -0.13401,-0.119113 -0.34072,-0.170949 -0.62064,-0.156063 l 0.0729,-0.32091 c 0.51011,-0.03042 0.96383,-0.158869 1.33841,-0.425297 0.42584,-0.300767 0.72992,-0.713025 0.91158,-1.237134 l -1.21078,-0.250114 c -0.0983,0.270988 -0.25482,0.486699 -0.46922,0.647506 -0.21442,0.157828 -0.45379,0.236678 -0.71882,0.236678 -0.2829,0 -0.49012,-0.09236 -0.62115,-0.276986 -0.12805,-0.184629 -0.19172,-0.427354 -0.19172,-0.728121 0,-0.217386 0.0282,-0.444931 0.0847,-0.683162 0.0596,-0.238231 0.14908,-0.460118 0.2682,-0.665593 0.11911,-0.205474 0.27063,-0.372178 0.45527,-0.500228 0.18462,-0.128049 0.40368,-0.192236 0.6568,-0.192236 0.2561,0 0.44197,0.07435 0.55811,0.223242 0.11616,0.145917 0.18202,0.348639 0.19689,0.607715 l 1.27279,-0.214457 c -0.009,-0.512198 -0.19648,-0.918797 -0.56276,-1.219564 -0.36628,-0.300767 -0.85005,-0.451135 -1.45159,-0.451135 z m 7.38766,0 c -0.36926,0 -0.7235,0.09518 -1.06298,0.285771 -0.33948,0.190585 -0.63456,0.476659 -0.8847,0.857828 -0.24717,0.378193 -0.4167,0.851808 -0.50902,1.420585 -0.0923,0.553888 -0.0805,1.023001 0.0357,1.40715 0.11614,0.381169 0.31101,0.671228 0.58498,0.870748 0.27695,0.199518 0.60585,0.299206 0.98702,0.299206 h 5.2e-4 c 0.27099,0 0.50754,-0.04451 0.71003,-0.133842 0.2025,-0.09231 0.3737,-0.205509 0.51366,-0.339514 0.13996,-0.136983 0.25316,-0.273845 0.33952,-0.410828 h 0.0625 l -0.12971,0.799435 h 1.31775 l 0.8263,-4.994011 h -1.33532 l -0.13849,0.839742 h -0.045 c -0.0387,-0.134005 -0.10405,-0.269193 -0.19637,-0.406176 -0.0923,-0.139961 -0.22467,-0.257658 -0.39739,-0.35295 -0.17271,-0.09529 -0.3991,-0.143144 -0.67903,-0.143144 z m 8.3659,0 c -0.44668,0 -0.84595,0.08335 -1.19734,0.250114 -0.34842,0.166762 -0.64465,0.394823 -0.88884,0.683679 -0.24418,0.288855 -0.43005,0.616088 -0.5581,0.982369 -0.12507,0.36628 -0.18759,0.750369 -0.18759,1.152384 0,0.631313 0.1842,1.1376 0.55346,1.518771 0.37224,0.378192 0.89653,0.567407 1.57251,0.567407 0.44371,0 0.83963,-0.08335 1.18804,-0.250114 0.35139,-0.166762 0.6493,-0.393151 0.89349,-0.679028 0.24418,-0.288856 0.42889,-0.616089 0.55397,-0.982369 0.12804,-0.369259 0.19223,-0.755021 0.19223,-1.157036 0,-0.631312 -0.18639,-1.135927 -0.55862,-1.514119 -0.36926,-0.38117 -0.8902,-0.572058 -1.56321,-0.572058 z m 61.94092,0 c -0.46157,0 -0.86765,0.08618 -1.21905,0.258899 -0.35139,0.16974 -0.64647,0.400631 -0.8847,0.692464 -0.23823,0.288856 -0.41844,0.616605 -0.54053,0.982886 -0.12209,0.363303 -0.18294,0.737231 -0.18294,1.121378 0,0.634291 0.18755,1.143407 0.56276,1.527556 0.37521,0.38117 0.89501,0.571541 1.55908,0.571541 0.59557,0 1.10469,-0.150368 1.52755,-0.451135 0.42584,-0.300767 0.72941,-0.713025 0.91106,-1.237134 l -1.21026,-0.250114 c -0.0983,0.270988 -0.25482,0.486699 -0.46923,0.647506 -0.2144,0.157828 -0.4543,0.236678 -0.71933,0.236678 -0.2829,0 -0.48961,-0.09236 -0.62064,-0.276986 -0.12805,-0.184629 -0.19223,-0.427354 -0.19223,-0.728121 0,-0.217386 0.0281,-0.444931 0.0847,-0.683162 0.0596,-0.238231 0.14909,-0.460118 0.2682,-0.665593 0.11912,-0.205474 0.27116,-0.372178 0.45578,-0.500228 0.18464,-0.128049 0.40318,-0.192236 0.6563,-0.192236 0.2561,0 0.44248,0.07435 0.55862,0.223242 0.11616,0.145917 0.1815,0.348639 0.19637,0.607715 l 1.27331,-0.214457 c -0.009,-0.512198 -0.19648,-0.918797 -0.56276,-1.219564 -0.36628,-0.300767 -0.85058,-0.451135 -1.45211,-0.451135 z m 7.29878,0 c -0.36926,0 -0.72402,0.09518 -1.0635,0.285771 -0.33948,0.190585 -0.63404,0.476659 -0.88418,0.857828 -0.24716,0.378193 -0.41721,0.851808 -0.50953,1.420585 -0.0923,0.553888 -0.08,1.023001 0.0362,1.40715 0.11613,0.381169 0.31101,0.671228 0.58498,0.870748 0.27694,0.199518 0.60584,0.299206 0.98702,0.299206 0.27098,0 0.50805,-0.04451 0.71055,-0.133842 0.2025,-0.09231 0.3737,-0.205509 0.51366,-0.339514 0.13996,-0.136983 0.25316,-0.273845 0.33952,-0.410828 h 0.0625 l -0.1297,0.799435 h 1.31775 l 0.8263,-4.994011 h -1.33532 l -0.13849,0.839742 h -0.045 c -0.0387,-0.134005 -0.10405,-0.269193 -0.19637,-0.406176 -0.0923,-0.139961 -0.22519,-0.257658 -0.39791,-0.35295 -0.17272,-0.09529 -0.39859,-0.143144 -0.67851,-0.143144 z m -136.22011,0.06253 -0.8263,4.994011 h 1.33997 l 0.8263,-4.994011 z m 28.98325,0 -0.82631,4.994011 h 1.33997 l 0.82631,-4.994011 z m 4.7749,0 -0.1788,1.081071 h 2.35386 l -0.009,0.03566 -2.9347,3.064412 -0.13436,0.812871 h 4.16822 l 0.1788,-1.081071 h -2.36729 l 0.004,-0.03566 2.77864,-2.988448 0.14728,-0.888835 z m 88.25818,0 -0.82631,4.994011 h 1.33997 l 0.82631,-4.994011 z m -17.25373,0.924492 c 0.2293,0 0.40899,0.04618 0.54002,0.138493 0.13102,0.09231 0.19689,0.217342 0.19689,0.37517 0,0.15485 -0.0569,0.278723 -0.17002,0.371037 -0.11018,0.08934 -0.31239,0.156355 -0.6072,0.201022 -0.29183,0.04467 -0.71194,0.07117 -1.25987,0.0801 0.0596,-0.199518 0.14291,-0.388217 0.25011,-0.56689 0.11018,-0.178674 0.25039,-0.323384 0.42013,-0.433566 0.17272,-0.110182 0.38278,-0.165364 0.62994,-0.165364 z m -37.83128,0.06718 c 0.27694,0 0.48364,0.09068 0.62063,0.272335 0.13698,0.181651 0.20567,0.42322 0.20567,0.723987 0,0.205474 -0.0281,0.427361 -0.0847,0.665592 -0.0566,0.235254 -0.14443,0.458296 -0.26355,0.669727 -0.11614,0.208451 -0.26535,0.379658 -0.447,0.513663 -0.17867,0.134006 -0.39271,0.201022 -0.64285,0.201022 -0.27695,0 -0.48417,-0.09236 -0.62115,-0.276986 -0.13698,-0.184629 -0.20567,-0.425681 -0.20567,-0.72347 0,-0.208452 0.0287,-0.430339 0.0853,-0.665592 0.0566,-0.238232 0.14277,-0.461791 0.2589,-0.670244 0.11912,-0.208452 0.26781,-0.377985 0.44648,-0.509013 0.18165,-0.134004 0.39788,-0.201021 0.64803,-0.201021 z m -49.51584,0.01809 c 0.34246,0 0.58351,0.135189 0.72347,0.406177 0.14294,0.26801 0.17728,0.630104 0.10283,1.085721 -0.0744,0.449662 -0.22815,0.812913 -0.46043,1.089856 -0.2293,0.273966 -0.51653,0.410828 -0.86197,0.410828 -0.34841,0 -0.59281,-0.139691 -0.73277,-0.419613 -0.13698,-0.282899 -0.16798,-0.643321 -0.0935,-1.081071 0.0715,-0.43775 0.22016,-0.795342 0.44648,-1.072286 0.2293,-0.279921 0.52155,-0.419612 0.87592,-0.419612 z m 25.69094,0 c 0.34245,0 0.58351,0.135189 0.72347,0.406177 0.14293,0.26801 0.17728,0.630104 0.10283,1.085721 -0.0744,0.449662 -0.22765,0.812913 -0.45992,1.089856 -0.2293,0.273966 -0.51653,0.410828 -0.86196,0.410828 -0.34841,0 -0.59281,-0.139691 -0.73277,-0.419613 -0.13699,-0.282899 -0.16799,-0.643321 -0.0935,-1.081071 0.0715,-0.43775 0.22017,-0.795342 0.44649,-1.072286 0.2293,-0.279921 0.52103,-0.419612 0.8754,-0.419612 z m 15.74942,0 c 0.34246,0 0.58351,0.135189 0.72347,0.406177 0.14294,0.26801 0.17728,0.630104 0.10284,1.085721 -0.0745,0.449662 -0.22816,0.812913 -0.46044,1.089856 -0.22929,0.273966 -0.51652,0.410828 -0.86196,0.410828 -0.34842,0 -0.59281,-0.139691 -0.73277,-0.419613 -0.13698,-0.282899 -0.16799,-0.643321 -0.0935,-1.081071 0.0715,-0.43775 0.22017,-0.795342 0.44649,-1.072286 0.2293,-0.279921 0.52154,-0.419612 0.87591,-0.419612 z m 77.60508,0 c 0.34246,0 0.58403,0.135189 0.72399,0.406177 0.14294,0.26801 0.17677,0.630104 0.10232,1.085721 -0.0744,0.449662 -0.22765,0.812913 -0.45992,1.089856 -0.2293,0.273966 -0.51653,0.410828 -0.86196,0.410828 -0.34842,0 -0.59281,-0.139691 -0.73278,-0.419613 -0.13698,-0.282899 -0.16798,-0.643321 -0.0935,-1.081071 0.0715,-0.43775 0.22016,-0.795342 0.44648,-1.072286 0.2293,-0.279921 0.52103,-0.419612 0.8754,-0.419612 z m -57.97475,1.286226 0.99115,1.393714 c -0.36032,0.214407 -0.71457,0.321427 -1.06298,0.321427 -0.25908,0 -0.45679,-0.06367 -0.59377,-0.19172 -0.13695,-0.131027 -0.19381,-0.308408 -0.17001,-0.53175 0.0179,-0.175696 0.0832,-0.335069 0.19637,-0.478007 0.11613,-0.145917 0.29802,-0.297958 0.54519,-0.455786 z" />
      <g
         id="g48-5-0"
         transform="matrix(0.60475661,0,0,0.60475661,-59.407808,542.83916)">
        <path
           id="rect19-2-7-8-3-9-3-3-0-9-1-7-7-5-22-9-1-4"
           style="fill:#2084ea;stroke-width:9.59244;stroke-linecap:round;stroke-linejoin:round;paint-order:stroke fill markers"
           d="m 704.54793,-1090 h 71.91195 c 7.78039,0 14.04403,6.2636 14.04403,14.044 v 71.912 c 0,7.78036 -6.26364,14.044 -14.04403,14.044 h -71.91195 c -7.78039,0 -14.04402,-6.26364 -14.04402,-14.044 v -71.912 c 0,-7.7804 6.26363,-14.044 14.04402,-14.044 z" />
        <g
           id="g44-4-7-8"
           transform="translate(237.95773,-19.561693)">
          <path
             id="path15-5-0-3-0-0-6-1-3-6-1-4-2-1-9-1-5-4"
             style="fill:#000000;stroke:#ffffff;stroke-width:0;stroke-linecap:round;stroke-linejoin:round;paint-order:stroke fill markers"
             d="m 507.77807,-1056.4947 c -12.39687,5e-4 -22.44624,10.0514 -22.44611,22.4483 3.6e-4,0.7719 0.0541,1.5374 0.13309,2.2991 l 3.00541,-0.7148 c -0.0186,-0.3256 -0.0418,-0.6509 -0.0429,-0.9789 -1e-5,0 -1e-5,0 0,-0.01 6e-5,-10.3669 8.4513,-18.8182 18.81816,-18.8182 10.36687,10e-5 18.81809,8.4513 18.81817,18.8182 v 0 0 0 0 c -0.0775,22.0601 -26.84318,14.019 -26.9242,38.10858 0.0312,3.45411 0.886,6.8509 2.49449,9.90714 0.16992,0.32719 0.25481,0.69187 0.24688,1.06047 2.27694,0.007 4.50403,-0.10749 6.94893,-0.64402 0.12749,-0.0282 0.25504,-0.0576 0.38427,-0.088 1.94448,-2.92732 5.21656,-4.69923 8.73072,-4.72709 3.02421,0.003 5.90187,1.30344 7.90638,3.56786 l 0.13095,-0.006 6.31137,-8.87026 c -6.08894,-2.70984 -10.01986,-8.74238 -10.04023,-15.40708 0.013,-3.7239 1.25322,-7.3395 3.52922,-10.2871 0.0851,-0.1201 0.17149,-0.2404 0.25975,-0.3585 0.40985,-0.5466 0.79444,-1.112 1.15279,-1.6937 1.96855,-3.3934 3.01202,-7.2421 3.02903,-11.1651 1.1e-4,-12.3973 -10.0488,-22.4485 -22.44614,-22.4483 z m -10.74004,63.04281 c 0.007,0.0702 0.0123,0.14025 0.0193,0.21039 -0.007,-0.0701 -0.0132,-0.14016 -0.0193,-0.21039 z" />
          <path
             id="path32-1-6-8-2-2-3-2-9-8-6-0-7-5-7-8"
             style="color:#000000;fill:#ffffff;stroke-width:1.09912;stroke-linecap:round;stroke-linejoin:round;-inkscape-stroke:none;paint-order:stroke fill markers"
             d="m 507.2457,-1050.0696 c -9.17891,10e-5 -16.61987,7.4411 -16.61992,16.62 0.0107,0.1554 0.0236,0.3107 0.0387,0.4658 l 2.64261,-0.7256 c 0.89799,-0.247 1.98226,-0.538 3.16427,-0.644 0.29551,-0.026 0.59743,-0.041 0.90377,-0.041 0.91901,7e-4 1.87988,0.1373 2.84654,0.5066 2.66325,1.0177 4.77206,3.1265 5.78971,5.7897 0.87609,2.2928 0.87608,4.8623 0,7.1551 -1.01765,2.6632 -3.12646,4.7742 -5.78971,5.7918 -2.18557,0.8352 -3.98373,0.6267 -5.27877,0.2705 l -5.50849,-1.5156 -2.30773,-0.6332 c -4.10923,3.4614 -6.58063,8.5942 -6.59259,14.1104 0.0286,9.88535 7.82173,18.00157 12.88034,18.2471 5.05855,0.24556 5.32815,0.2529 5.61152,0.25976 h 0.0171 0.007 c 0.21712,0.005 0.4231,0.008 0.63758,0.011 -1.77393,-3.3706 -2.71571,-7.11802 -2.7478,-10.92683 0.0732,-25.58963 26.85438,-17.71503 26.92634,-38.12153 -5e-5,-9.1789 -7.44101,-16.6198 -16.61992,-16.6199 z m -9.80623,17.9552 c -1.24173,0.013 -2.6001,0.2624 -3.55067,0.5238 l -3.02903,0.833 c 0.58808,3.5163 2.29125,6.7502 4.85804,9.2244 -1.10804,0.8463 -2.68761,1.5659 -4.96322,2.1038 -0.46076,0.2308 -0.90442,0.4842 -1.33956,0.7492 l 0.60108,0.1653 5.50849,1.5156 c 0.61796,0.17 2.44818,0.3538 3.91346,-0.2061 2.076,-0.7932 3.72561,-2.445 4.51886,-4.521 0.5599,-1.4653 0.5599,-4.1226 0,-5.5879 -0.79326,-2.076 -2.44286,-3.7277 -4.51886,-4.521 -0.54948,-0.2099 -1.25354,-0.287 -1.99859,-0.2791 z" />
          <path
             style="color:#000000;fill:#ffcc00;stroke-width:0.568145;stroke-linecap:round;stroke-linejoin:round;-inkscape-stroke:none;paint-order:stroke fill markers"
             d="m 493.88968,-1031.5899 a 73085.155,73085.155 0 0 1 -3.87274,1.0651 l -19.08118,5.2476 a 0.78546685,0.78546685 0 0 0 0,1.5147 l 19.08118,5.2475 a 104347.49,104347.49 0 0 1 5.5077,1.5149 c 0.61796,0.17 2.44708,0.3546 3.91237,-0.2053 2.076,-0.7933 3.7277,-2.445 4.52095,-4.521 0.5599,-1.4653 0.5599,-4.1217 0,-5.587 -0.79326,-2.076 -2.44496,-3.7277 -4.52096,-4.521 -1.46528,-0.5599 -4.02642,-0.1739 -5.54732,0.2445 z m -2.29401,1.1489 c 0.25634,-0.2231 0.25634,-0.2231 0.25634,-0.2231 z m -0.84111,0.8289 c 0.27852,-0.3141 0.27852,-0.3141 0.27852,-0.3141 z m -0.68133,0.9055 c 0.24856,-0.3695 0.24856,-0.3695 0.24856,-0.3695 z m -0.53929,0.9809 c 0.20861,-0.4161 0.20861,-0.4161 0.20861,-0.4161 z m -0.38617,1.0242 c 0.13538,-0.395 0.13538,-0.395 0.13538,-0.395 z m -0.24412,1.083 c 0.0721,-0.3539 0.0721,-0.3539 0.0721,-0.3539 z m 0.0721,2.5511 c -0.0721,-0.3539 -0.0721,-0.3539 -0.0721,-0.3539 z m 0.30737,1.1241 c -0.13538,-0.395 -0.13538,-0.395 -0.13538,-0.395 z m 0.4594,1.0453 c -0.20862,-0.4161 -0.20862,-0.4161 -0.20862,-0.4161 z m 0.57923,0.9344 c -0.24855,-0.3695 -0.24855,-0.3695 -0.24855,-0.3695 z m 0.7113,0.85 c -0.27853,-0.3141 -0.27853,-0.3141 -0.27853,-0.3141 z m 0.81892,0.7379 c -0.25633,-0.2231 -0.25633,-0.2231 -0.25633,-0.2231 z"
             id="path30-9-6-0-5-8-3-1-0-5-4-3-5-4-1-1" />
          <path
             id="rect43-1-6-1-6-6"
             style="fill:#ffcc00;stroke-width:0.32807;stroke-linecap:round;stroke-linejoin:round;paint-order:stroke fill markers"
             d="m 511.55777,-1010.1332 a 0.2563225,0.2563225 0 0 0 -0.19266,0.1153 l -6.40204,9.8241 a 0.78040308,0.78040308 0 0 0 0.53134,1.19675 l 3.31297,0.52682 -0.96033,6.0402 a 0.2563225,0.2563225 0 0 0 0.46791,0.18008 l 6.40188,-9.82405 a 0.78040308,0.78040308 0 0 0 -0.53135,-1.1968 l -3.31297,-0.5267 0.96049,-6.0402 a 0.2563225,0.2563225 0 0 0 -0.27524,-0.2955 z" />
        </g>
      </g>
    </g>
  </g>
</svg>
