<?xml version="1.0" encoding="UTF-8" standalone="no"?>
<!-- Created with Inkscape (http://www.inkscape.org/) -->

<svg
   width="1280"
   height="720"
   viewBox="0 0 338.66666 190.5"
   version="1.1"
   id="svg1"
   xmlns="http://www.w3.org/2000/svg"
   xmlns:svg="http://www.w3.org/2000/svg">
  <defs
     id="defs1" />
  <g
     id="layer1"
     transform="translate(-1046)">
    <path
       id="text38-45-5-8-5-4-7"
       style="font-weight:900;font-size:34.0729px;line-height:0;font-family:Alexandria;-inkscape-font-specification:'Alexandria Heavy';text-align:center;letter-spacing:0.299215px;text-anchor:middle;stroke-width:7.90264;stroke-linecap:round;stroke-linejoin:round;paint-order:stroke fill markers"
       d="m 1072.6003,53.171243 c -6.5478,0 -11.8198,5.271091 -11.8198,11.818893 v 60.519724 c 0,6.5478 5.272,11.8189 11.8198,11.8189 h 60.5189 c 6.5478,0 11.8196,-5.2711 11.8196,-11.8189 V 64.990136 c 0,-6.547802 -5.2718,-11.818893 -11.8196,-11.818893 z m 34.6626,11.727563 c 10.4333,-1.68e-4 18.8902,8.458223 18.8902,18.891488 -0.024,3.30153 -0.8921,6.54034 -2.5486,9.39613 -0.3016,0.48956 -0.6254,0.9653 -0.9702,1.42532 -0.075,0.0992 -0.1496,0.20076 -0.2196,0.30206 -1.9151,2.480621 -2.9554,5.523636 -2.9691,8.657586 0.024,5.60883 3.3245,10.68536 8.4489,12.96591 l -5.3114,7.46527 -0.111,0.005 c -1.6869,-1.90569 -4.1082,-3.0003 -6.6534,-3.00308 -2.9573,0.0241 -5.711,1.51538 -7.3474,3.97894 -0.1086,0.0253 -0.2172,0.0504 -0.3236,0.0741 -2.0575,0.45151 -3.9316,0.54709 -5.848,0.54151 0,-0.31023 -0.065,-0.61706 -0.2075,-0.89242 -1.3539,-2.57208 -2.0734,-5.43071 -2.0997,-8.3376 0.068,-20.273196 22.5942,-13.50646 22.6596,-32.071726 0,-8.724513 -7.1126,-15.836533 -15.8373,-15.836629 -8.7245,0 -15.8373,7.112116 -15.8373,15.836629 v 0.01 c 0,0.27602 0.024,0.54938 0.036,0.8234 l -2.5293,0.6019 c -0.067,-0.64099 -0.1134,-1.28482 -0.1134,-1.93445 0,-10.432901 8.4564,-18.8918 18.8895,-18.89221 v -0.0048 z m 193.9859,2.040865 c -1.5805,0 -2.877,0.505125 -3.8885,1.516653 -1.0115,1.011553 -1.5165,2.307833 -1.5165,3.888332 0,1.580524 0.505,2.876804 1.5165,3.888332 1.0115,1.011556 2.308,1.517376 3.8885,1.517376 1.5805,0 2.8767,-0.50582 3.8882,-1.517376 1.0115,-1.011528 1.5175,-2.307808 1.5175,-3.888332 0,-1.580499 -0.506,-2.876779 -1.5175,-3.888332 -1.0115,-1.011528 -2.3077,-1.516653 -3.8882,-1.516653 z m -194.434,3.373459 v 0 c 7.7248,7.2e-5 13.9871,6.262304 13.9871,13.987044 -0.06,17.173596 -22.5991,10.54686 -22.6604,32.082476 0.026,3.20542 0.8199,6.35964 2.3128,9.19625 -0.181,-0.002 -0.3537,-0.005 -0.5366,-0.01 h -0.024 -0.024 c -0.2389,-0.005 -0.4659,-0.0121 -4.7231,-0.21861 -4.2571,-0.20655 -10.8157,-7.037 -10.8394,-15.35629 0,-4.6423 2.0899,-8.96192 5.5481,-11.874975 l 1.9422,0.53288 4.6357,1.27572 c 1.0897,0.299785 2.6033,0.474945 4.4427,-0.22803 2.2414,-0.85637 4.0163,-2.63295 4.8727,-4.874251 0.7374,-1.92956 0.7374,-4.09242 0,-6.02198 -0.8564,-2.24128 -2.6313,-4.01564 -4.8727,-4.87209 -0.8134,-0.31086 -1.622,-0.42586 -2.3956,-0.42646 -0.2577,0 -0.512,0.0121 -0.7608,0.0345 -0.9946,0.0893 -1.9072,0.33436 -2.6629,0.54223 l -2.2242,0.61055 c -0.024,-0.13054 -0.024,-0.26111 -0.031,-0.39194 0,-7.72471 6.2623,-13.98694 13.9871,-13.987012 z m 93.6588,0.182659 v 35.181921 h 10.669 V 70.495789 Z m 128.3133,0 v 11.973465 c -0.4765,-0.54168 -0.9873,-1.03865 -1.5648,-1.44757 -1.4856,-1.10638 -3.256,-1.65906 -5.3106,-1.65906 -2.3393,0 -4.3935,0.55268 -6.1636,1.65906 -1.7388,1.07472 -3.0825,2.5922 -4.0308,4.55206 -0.9483,1.95984 -1.4224,4.2829 -1.4224,6.9698 0,2.71849 0.49,5.105691 1.4699,7.160351 0.9799,2.023085 2.3555,3.587425 4.1257,4.693755 1.8017,1.10638 3.9036,1.65974 6.3059,1.65974 1.9914,0 3.7143,-0.55336 5.1683,-1.65974 0.5224,-0.38899 0.9862,-0.85536 1.4224,-1.35769 v 2.63775 h 10.6684 V 70.495789 Z m -155.8983,1.943792 -14.0354,33.238129 h 11.2846 l 1.698,-4.69374 h 12.5012 l 1.6382,4.69374 h 11.7116 l -13.5136,-33.238129 z m 62.5202,6.828133 c -2.0862,0 -3.8884,0.55266 -5.4057,1.65905 -0.9024,0.65803 -1.6664,1.50536 -2.3227,2.49893 v -3.68407 h -10.669 v 25.936086 h 10.669 V 92.828294 c 0,-1.2644 0.2997,-2.27605 0.9003,-3.0347 0.6006,-0.75868 1.391,-1.13766 2.3709,-1.13766 0.8851,0 1.5964,0.31559 2.1338,0.94781 0.5374,0.63219 0.8062,1.50191 0.8062,2.60826 v 13.465706 h 10.669 V 92.828294 c 0,-1.2644 0.2997,-2.27605 0.9003,-3.0347 0.6006,-0.75868 1.391,-1.13766 2.3709,-1.13766 0.8851,0 1.5962,0.31559 2.1338,0.94781 0.5374,0.63219 0.8059,1.50191 0.8059,2.60826 v 13.465706 h 10.6684 V 89.129834 c 0,-1.99147 -0.3948,-3.73016 -1.185,-5.21585 -0.7587,-1.4857 -1.8339,-2.62343 -3.2247,-3.41369 -1.3592,-0.82187 -2.9394,-1.23258 -4.7412,-1.23258 -2.0862,0 -3.8884,0.55266 -5.4057,1.65905 -1.294,0.94346 -2.3191,2.25368 -3.1074,3.88686 -0.123,-0.30647 -0.2483,-0.61212 -0.4012,-0.89964 -0.7587,-1.4857 -1.8332,-2.62343 -3.224,-3.41369 -1.3592,-0.82187 -2.9401,-1.23258 -4.7419,-1.23258 z m 122.5289,0 c -1.2644,0 -2.6082,0.0943 -4.0309,0.28406 -1.4224,0.18965 -2.8764,0.47428 -4.3621,0.8536 -1.454,0.37934 -2.924,0.8376 -4.4096,1.37494 l 2.3709,7.11221 c 1.4857,-0.53738 2.9238,-0.94809 4.3149,-1.2326 1.3908,-0.28449 2.576,-0.42644 3.5559,-0.42644 1.3276,0 2.3234,0.26878 2.9872,0.80614 0.6701,0.48729 1.0098,1.16999 1.0342,2.03874 h -5.9177 c -3.2874,0.0316 -5.785,0.72695 -7.492,2.08618 -1.7069,1.32767 -2.5601,3.27171 -2.5601,5.832151 0,1.64374 0.3316,3.081975 0.9954,4.314775 0.6954,1.20121 1.6912,2.14945 2.9872,2.8449 1.296,0.6638 2.8612,0.99594 4.6946,0.99594 2.2127,0 4.0298,-0.48994 5.4523,-1.46986 0.7222,-0.5024 1.3379,-1.0997 1.8497,-1.7892 v 2.78446 h 10.4785 V 88.892524 c 0,-3.06622 -1.0586,-5.43686 -3.1764,-7.11221 -2.0865,-1.67531 -5.0103,-2.5126 -8.772,-2.5126 z m -79.6278,0.0951 c -2.7816,0 -5.2158,0.55269 -7.302,1.65905 -2.0546,1.10635 -3.6665,2.67136 -4.836,4.69447 -1.1382,1.99144 -1.7074,4.36204 -1.7074,7.11216 0,2.6553 0.5535,4.979051 1.6598,6.970531 1.138,1.991445 2.7657,3.539905 4.8836,4.646285 2.1178,1.07475 4.6471,1.61228 7.5868,1.61228 2.529,0 4.7727,-0.41071 6.7325,-1.23256 1.9914,-0.82189 3.6667,-1.99207 5.026,-3.50935 l -5.5474,-5.452456 c -1.6437,1.548921 -3.3981,2.323521 -5.2633,2.323521 -0.9483,0 -1.7856,-0.22103 -2.5126,-0.66378 -0.6954,-0.47414 -1.2487,-1.154351 -1.6597,-2.039441 -0.048,-0.11341 -0.067,-0.259 -0.1085,-0.379 h 16.8469 c 0.1906,-3.19266 -0.2527,-5.95885 -1.3274,-8.298 -1.0431,-2.37081 -2.6241,-4.2039 -4.7419,-5.49991 -2.1181,-1.29602 -4.6939,-1.9438 -7.7287,-1.9438 z m 17.5807,0.379 v 25.936076 h 10.6688 V 79.741814 Z m -117.6921,3.65098 3.3921,9.72048 h -6.9078 z m -79.6362,2.03082 -0.024,0.001 c 0.193,-0.001 0.3791,0.005 0.5622,0.0193 0.094,0.007 0.1858,0.0145 0.2741,0.0253 0.041,0.005 0.082,0.01 0.1207,0.0169 0.099,0.0145 0.193,0.0311 0.2854,0.0509 0.043,0.01 0.085,0.0193 0.1255,0.0302 0.094,0.0241 0.1858,0.0507 0.271,0.0818 0,0.005 0.029,0.007 0.041,0.0121 0.024,0.005 0.024,0.0121 0.034,0.0145 0.193,0.0753 0.3834,0.15973 0.5675,0.25242 0.024,0.0121 0.046,0.0241 0.07,0.0352 0.1833,0.0956 0.3633,0.19955 0.5371,0.31142 0.024,0.0121 0.036,0.0241 0.053,0.0345 0.1785,0.11703 0.3501,0.24207 0.5156,0.37538 0,0.01 0.024,0.0193 0.031,0.0266 0.1665,0.13585 0.3272,0.28007 0.4797,0.4315 0,0.01 0.024,0.0217 0.031,0.0302 0.1545,0.15588 0.3031,0.31895 0.4423,0.48976 0.024,0.002 0.024,0.002 0.024,0.005 0.024,0.001 0.024,0.005 0.024,0.005 0.1423,0.17687 0.2767,0.36168 0.402,0.55302 0.2516,0.38668 0.4642,0.80124 0.6312,1.23835 0.4712,1.23318 0.4712,3.4685 0,4.70166 -0.3337,0.87358 -0.8486,1.65834 -1.4977,2.30769 -0.1593,0.16022 -0.3284,0.31153 -0.5043,0.45447 0,0.005 -5e-4,0.007 -0.024,0.0121 -0.1738,0.140911 -0.355,0.273511 -0.543,0.396201 0,0.002 3e-4,0.005 -0.024,0.01 -0.1858,0.12137 -0.3807,0.23429 -0.5803,0.33655 0,0.005 0,0.01 -0.024,0.0121 -0.2003,0.10134 -0.4054,0.19303 -0.6163,0.27399 0,10e-4 -0.024,0.002 -0.024,0.005 -3e-4,1e-4 0,-9e-5 0,0 -0.1544,0.0589 -0.3127,0.10834 -0.4739,0.14888 -0.3221,0.0811 -0.6532,0.12813 -0.9721,0.15081 -0.1641,0.0121 -0.3248,0.0169 -0.4805,0.0169 -0.2873,4.3e-4 -0.5528,-0.0169 -0.781,-0.0417 -0.024,-0.001 -0.031,-0.002 -0.048,-0.005 -0.2147,-0.0261 -0.3926,-0.0589 -0.5178,-0.0922 0,0 0,-0.001 -0.024,-0.002 l -4.6355,-1.275721 -0.5055,-0.13875 7e-4,-7.2e-4 -15.5519,-4.27667 a 0.66103251,0.66103251 0 0 1 0,-1.275 l 16.0581,-4.41619 a 61506.943,61506.943 0 0 0 0.7099,-0.19496 l -7e-4,-7e-4 2.5493,-0.70115 c 0.031,-0.01 0.07,-0.0169 0.1037,-0.0253 0.1496,-0.0396 0.3057,-0.0779 0.4739,-0.11486 0.087,-0.0193 0.181,-0.0369 0.2719,-0.0555 0.1303,-0.0263 0.2611,-0.0507 0.3977,-0.0741 0.099,-0.0169 0.1979,-0.0323 0.3004,-0.0473 0.1424,-0.0217 0.284,-0.0372 0.4288,-0.0531 0.1013,-0.0121 0.2003,-0.0241 0.3026,-0.0323 0.2027,-0.0169 0.4068,-0.0282 0.6078,-0.0323 0.034,-10e-4 0.068,-0.005 0.1037,-0.005 z m 179.8425,1.05137 c 0.6324,0 1.1857,0.15781 1.6598,0.47392 0.4742,0.31608 0.8373,0.75851 1.0902,1.32751 0.2529,0.53738 0.3479,1.17003 0.2847,1.89705 h -6.4367 c 0.055,-0.28883 0.099,-0.58644 0.1785,-0.8536 0.2845,-0.88509 0.6959,-1.58043 1.2333,-2.0862 0.5373,-0.50576 1.2009,-0.75868 1.9911,-0.75868 z m 46.5415,1.32753 c 0.7902,0 1.4697,0.20534 2.0387,0.61629 0.5689,0.41094 1.0119,0.99603 1.328,1.75466 0.3161,0.75865 0.4739,1.64348 0.4739,2.65503 0,1.01153 -0.1568,1.89638 -0.4739,2.65503 -0.3161,0.75865 -0.7591,1.34374 -1.328,1.754671 -0.569,0.41092 -1.2485,0.61629 -2.0387,0.61629 -0.7903,0 -1.4857,-0.20535 -2.0863,-0.61629 -0.5689,-0.410931 -1.0115,-0.996021 -1.3276,-1.754671 -0.3161,-0.75865 -0.4739,-1.6435 -0.4739,-2.65503 0,-1.01155 0.1569,-1.89638 0.4739,-2.65503 0.3161,-0.75863 0.7587,-1.34372 1.3276,-1.75466 0.6006,-0.41095 1.296,-0.61629 2.0863,-0.61629 z m 30.7628,7.20709 h 3.6985 v 2.370971 c -0.2845,0.41093 -0.6167,0.7741 -0.996,1.09022 -0.3793,0.28448 -0.79,0.5057 -1.2326,0.66375 -0.4425,0.15805 -0.901,0.23719 -1.3751,0.23719 -0.7586,0 -1.3435,-0.20534 -1.7544,-0.61629 -0.4112,-0.41094 -0.6166,-0.96433 -0.6166,-1.65976 0,-0.695411 0.1907,-1.217111 0.569,-1.564821 0.4109,-0.34773 0.9802,-0.52139 1.7072,-0.52139 z m -245.2085,7.877356 c -0.048,-0.001 -0.096,1.5e-4 -0.1448,0.005 -0.3822,0.0331 -0.7304,0.24247 -0.9401,0.56378 l -5.3883,8.26782 c -0.6477,0.99394 -0.024,2.40703 1.1512,2.59319 l 1.7663,0.28045 -0.645,4.0631 c -0.092,0.57998 0.3055,1.17817 0.7852,1.36276 0.4797,0.18459 1.176,0.007 1.4965,-0.48543 l 5.3878,-8.2671 c 0.6476,-0.99389 0.024,-2.40768 -1.1522,-2.59391 l -1.7662,-0.28116 0.6459,-4.06023 a 1.0347265,1.0347265 0 0 0 0,-7e-4 1.0347265,1.0347265 0 0 0 0,-7.2e-4 1.0347265,1.0347265 0 0 0 0,-7.5e-4 c 0.1158,-0.72943 -0.4751,-1.41743 -1.1958,-1.4447 z m -0.058,1.03554 a 0.21571567,0.21571567 0 0 1 0.2316,0.24885 l -0.8083,5.0835 2.7879,0.44297 a 0.65677096,0.65677096 0 0 1 0.4473,1.0075 l -5.3876,8.26782 a 0.21571567,0.21571567 0 0 1 -0.3935,-0.15153 l 0.8083,-5.08353 -2.7879,-0.44297 a 0.65677096,0.65677096 0 0 1 -0.4481,-1.00753 l 5.3884,-8.26782 a 0.21571567,0.21571567 0 0 1 0.1616,-0.097 z m 69.4017,8.27791 c -0.279,0 -0.5335,0.0946 -0.7632,0.28332 -0.2245,0.18435 -0.3605,0.40615 -0.4054,0.66448 -0.041,0.26245 0.024,0.4857 0.1858,0.67022 0.1689,0.18434 0.3928,0.27688 0.6758,0.27688 0.2749,0 0.5277,-0.0924 0.7572,-0.27688 0.2292,-0.18435 0.3646,-0.40777 0.4056,-0.67022 0.046,-0.26656 -0.024,-0.49053 -0.1906,-0.67094 -0.1689,-0.18459 -0.3897,-0.27686 -0.6645,-0.27686 z m 39.9114,0 c -0.2787,0 -0.5332,0.0946 -0.7629,0.28332 -0.2244,0.18435 -0.3613,0.40615 -0.4064,0.66448 -0.041,0.26245 0.024,0.4857 0.1858,0.67022 0.1689,0.18434 0.3938,0.27688 0.6769,0.27688 0.2748,0 0.5267,-0.0924 0.7564,-0.27688 0.2292,-0.18435 0.3646,-0.40777 0.4056,-0.67022 0.046,-0.26656 -0.024,-0.49053 -0.1906,-0.67094 -0.1689,-0.18459 -0.389,-0.27686 -0.6638,-0.27686 z m 128.11,0 c -0.2787,0 -0.5332,0.0946 -0.763,0.28332 -0.2268,0.18435 -0.3605,0.40615 -0.4056,0.66448 -0.041,0.26245 0.024,0.4857 0.1834,0.67022 0.1689,0.18434 0.3938,0.27688 0.6768,0.27688 0.2746,0 0.5268,-0.0924 0.7565,-0.27688 0.2292,-0.18435 0.3653,-0.40777 0.4063,-0.67022 0.046,-0.26656 -0.024,-0.49053 -0.1906,-0.67094 -0.1689,-0.18459 -0.389,-0.27686 -0.6638,-0.27686 z m -24.2698,0.007 -1.1686,1.864 h 1.2916 l 1.587,-1.864 z m -64.1572,0.11076 c -0.3771,0 -0.7048,0.1414 -0.9837,0.42429 -0.2787,0.27886 -0.4674,0.68108 -0.5659,1.20599 h 1.0147 c 0.034,-0.17639 0.092,-0.32006 0.1785,-0.43076 0.087,-0.11076 0.1955,-0.16625 0.3265,-0.16625 0.1279,0 0.2541,0.0531 0.3812,0.15973 0.1279,0.10255 0.2749,0.20752 0.443,0.31426 0.1714,0.10666 0.3897,0.15974 0.6523,0.15974 0.3607,0 0.6843,-0.1414 0.9714,-0.42429 0.2872,-0.28294 0.4773,-0.68518 0.5716,-1.20596 h -0.9958 c -0.046,0.19279 -0.1062,0.34046 -0.1858,0.44299 -0.077,0.10255 -0.1882,0.15394 -0.3322,0.15394 -0.14,0 -0.2705,-0.0514 -0.3933,-0.15394 -0.1231,-0.10665 -0.2686,-0.21355 -0.4368,-0.32001 -0.1641,-0.10665 -0.3798,-0.15973 -0.6464,-0.15973 z m -95.5794,0.26462 c -0.7628,0 -1.4541,0.15347 -2.0732,0.46097 -0.6151,0.30756 -1.1418,0.72828 -1.5808,1.26134 -0.4345,0.52902 -0.7685,1.13367 -1.0023,1.81437 -0.234,0.67661 -0.3511,1.38806 -0.3511,2.13441 0,0.7955 0.152,1.47238 0.4554,2.03008 0.3076,0.5536 0.734,0.9776 1.2793,1.27285 0.5494,0.29117 1.1893,0.4365 1.9192,0.4365 0.7505,0 1.4251,-0.15322 2.0238,-0.46095 0.6027,-0.30755 1.107,-0.70742 1.5131,-1.19949 0.4059,-0.49617 0.6909,-1.02934 0.8549,-1.59935 h -1.9006 c -0.1714,0.50028 -0.4756,0.89212 -0.9104,1.17506 -0.4346,0.27886 -0.9268,0.4178 -1.4763,0.4178 -0.5743,0 -1.0293,-0.17422 -1.3657,-0.52279 -0.3364,-0.35268 -0.5041,-0.87303 -0.5041,-1.56194 0,-0.47569 0.065,-0.94706 0.1979,-1.41452 0.1351,-0.47161 0.332,-0.90273 0.5904,-1.2923 0.2623,-0.38957 0.5845,-0.70112 0.9657,-0.93487 0.3856,-0.23381 0.8279,-0.35021 1.3283,-0.35021 0.5043,0 0.9042,0.1414 1.1995,0.42429 0.2953,0.27884 0.443,0.66592 0.443,1.16212 h 1.9007 c 0.024,-0.69302 -0.111,-1.28086 -0.4056,-1.76475 -0.2913,-0.48389 -0.7056,-0.85324 -1.2427,-1.10747 -0.533,-0.25422 -1.1522,-0.38115 -1.8575,-0.38115 z m 124.0569,0.0121 c -0.4838,0 -0.9205,0.0965 -1.3102,0.28907 -0.3854,0.19279 -0.7034,0.45457 -0.9536,0.78674 -0.25,0.33214 -0.41,0.70791 -0.4794,1.12614 -0.07,0.42649 -0.048,0.81594 0.067,1.16859 0.1158,0.34857 0.2705,0.67859 0.4674,0.99025 l -0.024,0.0121 c -0.5618,0.36088 -1.0253,0.71575 -1.3901,1.0643 -0.361,0.34447 -0.5866,0.7789 -0.6769,1.30381 -0.077,0.49204 -0.024,0.94165 0.1665,1.34762 0.1882,0.40188 0.4988,0.72386 0.9293,0.96581 0.4345,0.23767 0.9774,0.35665 1.6294,0.35665 v -7e-4 c 0.3733,0 0.7731,-0.0572 1.1997,-0.1718 0.4305,-0.11485 0.8344,-0.30186 1.2116,-0.56021 l 0.4309,0.59689 h 1.907 l -1.083,-1.50659 c 0.2992,-0.33214 0.5644,-0.74244 0.7939,-1.23043 0.2292,-0.48797 0.396,-1.05569 0.4983,-1.70361 h -1.5503 c -0.048,0.29527 -0.1352,0.57795 -0.2582,0.84858 -0.1183,0.27066 -0.2667,0.5204 -0.443,0.75004 l -1.2239,-1.70361 0.6889,-0.44296 c 0.4182,-0.26656 0.7548,-0.56606 1.0089,-0.89822 0.2543,-0.33214 0.4157,-0.70077 0.4854,-1.10672 0.07,-0.41418 0.034,-0.79393 -0.111,-1.1384 -0.1447,-0.34855 -0.3829,-0.62483 -0.719,-0.82988 -0.3364,-0.20921 -0.7572,-0.31354 -1.2615,-0.31354 z m -115.5998,0.11075 -1.5197,9.16461 h 1.8454 l 1.5194,-9.16461 z m 130.6375,0 -1.5187,9.16461 h 6.1443 l 0.2589,-1.5562 h -4.2687 l 0.381,-2.31273 h 3.9307 l 0.2582,-1.52526 h -3.9307 l 0.3631,-2.21421 h 4.2567 l 0.2579,-1.55621 z m 10.782,0 -1.5187,9.16461 h 1.8452 l 1.5196,-9.16461 z m -102.5355,0.65155 -0.2712,1.63674 h -0.9529 l -0.2292,1.40805 h 0.9471 l -0.6025,3.61721 c -0.1038,0.62741 2e-4,1.10921 0.3076,1.44545 0.3077,0.33624 0.8079,0.50414 1.5009,0.50414 0.1882,0 0.3853,-0.0145 0.5904,-0.0432 0.2099,-0.0246 0.4179,-0.0654 0.6271,-0.12306 l -0.031,-1.3836 c -0.07,0.0169 -0.1713,0.035 -0.3021,0.0555 -0.1279,0.0169 -0.2244,0.0246 -0.2949,0.0246 -0.4182,0 -0.5924,-0.21355 -0.5229,-0.64003 l 0.5719,-3.45685 h 1.2856 l 0.2268,-1.40805 h -1.2793 l 0.2712,-1.63675 z m 119.7759,0 -0.2704,1.63674 h -0.9536 l -0.2269,1.40805 h 0.9474 l -0.6028,3.61721 c -0.1037,0.62741 2e-4,1.10921 0.3079,1.44545 0.3074,0.33624 0.8076,0.50414 1.5008,0.50414 0.1883,0 0.3854,-0.0145 0.5903,-0.0432 0.2099,-0.0246 0.4186,-0.0654 0.6278,-0.12306 l -0.031,-1.3836 c -0.07,0.0169 -0.1713,0.035 -0.3013,0.0555 -0.1279,0.0169 -0.2269,0.0246 -0.2954,0.0246 -0.4184,0 -0.5926,-0.21355 -0.5229,-0.64003 l 0.5724,-3.45685 h 1.2851 l 0.2268,-1.40805 h -1.2793 l 0.2705,-1.63675 z m -43.1952,0.72631 c 0.2543,0 0.4486,0.0659 0.5839,0.19714 0.1352,0.12716 0.1931,0.29262 0.1738,0.49765 -0.029,0.22971 -0.1303,0.42636 -0.3014,0.59039 -0.1713,0.15998 -0.3728,0.30765 -0.6025,0.443 l -0.6091,0.36314 c -0.1303,-0.22126 -0.2268,-0.42052 -0.2893,-0.59689 -0.063,-0.18048 -0.082,-0.35465 -0.063,-0.52278 0.024,-0.30345 0.1448,-0.54115 0.3569,-0.71336 0.2123,-0.17229 0.4637,-0.25819 0.7506,-0.25819 z m 35.1317,0.79319 c -0.5825,0 -1.1155,0.11702 -1.5993,0.35093 -0.4841,0.22972 -0.9025,0.54762 -1.255,0.95357 -0.3528,0.40188 -0.6249,0.86282 -0.8177,1.38363 -0.1882,0.52079 -0.2833,1.07004 -0.2833,1.64823 0,0.88167 0.2625,1.57061 0.7876,2.06678 0.5289,0.4921 1.253,0.73853 2.1716,0.73853 0.8038,0 1.4968,-0.18314 2.079,-0.54795 0.5864,-0.36498 0.9927,-0.84675 1.2183,-1.44548 l -1.6548,-0.2215 c -0.1158,0.25837 -0.3076,0.4615 -0.5781,0.6091 -0.2708,0.14357 -0.5799,0.21571 -0.9285,0.21571 -0.5002,0 -0.8448,-0.1315 -1.0333,-0.39408 -0.1882,-0.26653 -0.2835,-0.59655 -0.2835,-0.99025 0,-0.082 0,-0.16794 0,-0.25816 1.0171,-0.0246 1.8763,-0.10496 2.5775,-0.24008 0.7012,-0.13513 1.2321,-0.35053 1.5928,-0.64578 0.361,-0.29525 0.5415,-0.70079 0.5415,-1.2175 0,-0.41415 -0.111,-0.77144 -0.332,-1.07076 -0.222,-0.29935 -0.5251,-0.52899 -0.9107,-0.68892 -0.3812,-0.16408 -0.8141,-0.24595 -1.2979,-0.24595 z m -134.2673,0.0121 c -0.3813,0 -0.7587,0.10424 -1.1319,0.31354 -0.3731,0.20486 -0.6928,0.55189 -0.9592,1.03988 l 0.1424,-1.24843 h -1.7101 l -1.1442,6.87632 h 1.8452 l 0.6768,-4.09616 c 0.07,-0.41418 0.2456,-0.74017 0.5284,-0.97801 0.2831,-0.24195 0.5994,-0.36317 0.9478,-0.36317 0.2872,0 0.5065,0.0883 0.6581,0.26465 0.152,0.17639 0.1978,0.43486 0.1423,0.77523 l -0.7318,4.39746 h 1.7834 l 0.6954,-4.17023 c 0.058,-0.35676 0.2172,-0.65625 0.4794,-0.8982 0.2626,-0.24602 0.5845,-0.36891 0.9659,-0.36891 0.279,0 0.4981,0.0842 0.658,0.25242 0.1641,0.16794 0.2124,0.44678 0.1472,0.83635 l -0.7255,4.34857 h 1.8517 l 0.7564,-4.57585 c 0.082,-0.50025 0.053,-0.92903 -0.087,-1.28578 -0.1399,-0.36083 -0.3672,-0.63784 -0.6831,-0.83058 -0.3117,-0.1928 -0.6843,-0.2891 -1.1188,-0.2891 -0.4636,0 -0.9107,0.12113 -1.3414,0.36315 -0.4305,0.24194 -0.783,0.63378 -1.0578,1.17508 -0.082,-0.50028 -0.2522,-0.88172 -0.5106,-1.14415 -0.2582,-0.26243 -0.6172,-0.39408 -1.0764,-0.39408 z m 153.033,0.0121 c -0.3856,0 -0.7444,0.11075 -1.0767,0.33221 -0.332,0.21741 -0.5945,0.53767 -0.7873,0.96006 h -0.072 l 0.1906,-1.19952 h -1.7841 l -1.1377,6.87632 h 1.8451 l 0.646,-3.91205 c 0.07,-0.42651 0.264,-0.7726 0.5839,-1.03916 0.3238,-0.26655 0.6995,-0.39982 1.1261,-0.39982 0.1303,0 0.2725,0.01 0.4242,0.0246 0.152,0.0169 0.2708,0.0391 0.3567,0.0676 l 0.277,-1.64824 c -0.1834,-0.0413 -0.3813,-0.0618 -0.5905,-0.0618 z m -139.5686,0.007 c -0.5086,0 -0.9968,0.13079 -1.4642,0.39336 -0.4676,0.26246 -0.8737,0.65666 -1.2183,1.18152 -0.3402,0.52079 -0.574,1.17281 -0.7012,1.95605 -0.1278,0.76273 -0.111,1.40834 0.051,1.93733 0.1593,0.52488 0.4283,0.92478 0.8055,1.19952 0.3812,0.27459 0.8353,0.41191 1.3599,0.41206 0.3728,-1e-4 0.6988,-0.062 0.9772,-0.18508 0.279,-0.12716 0.5149,-0.28289 0.7077,-0.46743 0.1931,-0.18869 0.3485,-0.37731 0.4674,-0.56593 h 0.087 l -0.1786,1.10097 h 1.8143 l 1.1377,-6.87632 h -1.8386 l -0.1907,1.15638 h -0.063 c -0.053,-0.18435 -0.1424,-0.37157 -0.2705,-0.56021 -0.1279,-0.1928 -0.3093,-0.35418 -0.5472,-0.48542 -0.2389,-0.13102 -0.5495,-0.19713 -0.9348,-0.19713 z m 35.3776,0 c -0.5087,0 -0.9968,0.13079 -1.4642,0.39336 -0.4676,0.26246 -0.873,0.65666 -1.2176,1.18152 -0.3404,0.52079 -0.574,1.17281 -0.7012,1.95605 -0.1279,0.76273 -0.111,1.40834 0.048,1.93733 0.1592,0.52488 0.429,0.92478 0.8061,1.19952 0.3815,0.27474 0.8344,0.41206 1.3593,0.41206 0.3732,0 0.6992,-0.062 0.9779,-0.18508 0.279,-0.12716 0.5149,-0.28289 0.7077,-0.46743 0.1931,-0.18869 0.3485,-0.37731 0.4674,-0.56593 h 0.087 l -0.1786,1.10097 h 1.815 l 1.1377,-6.87632 h -1.8389 l -0.1906,1.15638 h -0.06 c -0.053,-0.18435 -0.1448,-0.37157 -0.271,-0.56021 -0.1279,-0.1928 -0.3093,-0.35418 -0.5472,-0.48542 -0.2389,-0.13102 -0.5495,-0.19713 -0.9348,-0.19713 z m 11.5138,0 c -0.6356,0 -1.1951,0.11872 -1.6792,0.35669 -0.4838,0.23381 -0.8894,0.55171 -1.2173,0.95356 -0.3282,0.39775 -0.5762,0.84902 -0.7444,1.3534 -0.1689,0.5003 -0.2524,1.01498 -0.2524,1.54397 0,0.87343 0.2584,1.57446 0.7753,2.10345 0.4165,0.42321 0.9688,0.66737 1.6439,0.74934 l -0.3279,0.99097 h 0.5658 c 0.2003,0 0.3366,0.0287 0.4064,0.0861 0.07,0.0574 0.094,0.15371 0.072,0.28912 -0.024,0.13513 -0.084,0.23164 -0.1786,0.2891 -0.089,0.0574 -0.234,0.0861 -0.4307,0.0861 h -0.7811 l -0.1158,0.73206 h 0.861 c 0.5166,0 0.9043,-0.0842 1.1627,-0.25239 0.2582,-0.16794 0.4182,-0.4428 0.4797,-0.82414 0.053,-0.32394 0,-0.57042 -0.1978,-0.73856 -0.1858,-0.16408 -0.4696,-0.2355 -0.8552,-0.21499 l 0.099,-0.44084 c 0.7029,-0.0418 1.3278,-0.21886 1.8437,-0.58608 0.5866,-0.41418 1.0047,-0.98265 1.255,-1.70433 l -1.6669,-0.34447 c -0.1351,0.37316 -0.3506,0.67101 -0.6457,0.89242 -0.2953,0.21741 -0.6254,0.3258 -0.9903,0.3258 -0.3897,0 -0.6746,-0.12692 -0.8551,-0.38118 -0.1762,-0.25422 -0.2647,-0.58902 -0.2647,-1.00318 0,-0.29934 0.039,-0.61254 0.1158,-0.94061 0.082,-0.32806 0.2051,-0.63393 0.3689,-0.91689 0.1641,-0.28294 0.3728,-0.51258 0.6272,-0.68892 0.2543,-0.17639 0.5561,-0.2639 0.9046,-0.2639 0.3527,0 0.6088,0.10182 0.7687,0.30704 0.1593,0.201 0.25,0.4803 0.2705,0.83708 l 1.7533,-0.29556 c 0,-0.70533 -0.271,-1.26501 -0.7753,-1.67919 -0.5043,-0.41414 -1.1708,-0.62131 -1.9991,-0.62131 z m 10.1737,0 c -0.5087,0 -0.9968,0.13079 -1.4642,0.39336 -0.4676,0.26246 -0.8737,0.65666 -1.2183,1.18152 -0.3405,0.52079 -0.574,1.17281 -0.7012,1.95605 -0.1279,0.76273 -0.111,1.40834 0.051,1.93733 0.1592,0.52488 0.4283,0.92478 0.8054,1.19952 0.3813,0.27459 0.8354,0.41191 1.3599,0.41206 0.3728,-1e-4 0.6986,-0.062 0.9773,-0.18508 0.2789,-0.12716 0.5149,-0.28289 0.7077,-0.46743 0.193,-0.18869 0.3484,-0.37731 0.4674,-0.56593 h 0.087 l -0.1786,1.10097 h 1.8143 l 1.1384,-6.87632 h -1.8394 l -0.1906,1.15638 h -0.063 c -0.053,-0.18435 -0.1424,-0.37157 -0.2705,-0.56021 -0.1279,-0.1928 -0.3094,-0.35418 -0.5473,-0.48542 -0.2389,-0.13102 -0.5494,-0.19713 -0.9347,-0.19713 z m 11.5196,0 c -0.6151,0 -1.1643,0.11462 -1.6483,0.34445 -0.4797,0.22971 -0.8877,0.54359 -1.2238,0.94136 -0.3364,0.39775 -0.5924,0.84827 -0.7688,1.3527 -0.1713,0.50437 -0.2589,1.03351 -0.2589,1.58708 0,0.86936 0.2546,1.56636 0.763,2.09125 0.5125,0.52076 1.2344,0.78167 2.1653,0.78167 0.611,0 1.1563,-0.11461 1.636,-0.34445 0.4838,-0.22971 0.8942,-0.54122 1.2304,-0.93486 0.3363,-0.39775 0.5902,-0.84902 0.7622,-1.3534 0.1762,-0.50848 0.2647,-1.04002 0.2647,-1.5936 0,-0.86933 -0.2562,-1.56397 -0.7687,-2.08473 -0.5085,-0.52491 -1.2263,-0.78747 -2.1531,-0.78747 z m 85.296,0 c -0.6356,0 -1.1954,0.11872 -1.6792,0.35669 -0.484,0.23381 -0.8901,0.55171 -1.2183,0.95356 -0.3279,0.39775 -0.5762,0.84902 -0.7444,1.3534 -0.1689,0.5003 -0.2524,1.01498 -0.2524,1.54397 0,0.87343 0.2587,1.57446 0.7753,2.10345 0.5166,0.52489 1.2323,0.78744 2.1465,0.78744 0.8202,0 1.5219,-0.20703 2.1044,-0.62131 0.5863,-0.41418 1.0047,-0.98262 1.2547,-1.70433 l -1.6669,-0.34447 c -0.1351,0.37316 -0.3513,0.67102 -0.6464,0.89243 -0.2953,0.2174 -0.6254,0.32579 -0.9903,0.32579 -0.3896,0 -0.6746,-0.12692 -0.8551,-0.38115 -0.1761,-0.25425 -0.264,-0.58902 -0.264,-1.00318 0,-0.29937 0.039,-0.61257 0.1158,-0.94063 0.082,-0.32804 0.2051,-0.63393 0.369,-0.9169 0.1641,-0.28294 0.3735,-0.51258 0.6278,-0.68891 0.2544,-0.17639 0.5555,-0.26391 0.9039,-0.26391 0.3528,0 0.609,0.10183 0.7688,0.30705 0.1592,0.201 0.2507,0.48032 0.2712,0.83707 l 1.7525,-0.29558 c 0,-0.70531 -0.2702,-1.26499 -0.7745,-1.67914 -0.5043,-0.41416 -1.1708,-0.62134 -1.9992,-0.62134 z m 10.0496,0 c -0.5084,0 -0.9965,0.13079 -1.4639,0.39336 -0.4676,0.26246 -0.8733,0.65666 -1.2176,1.18152 -0.3404,0.52079 -0.574,1.17281 -0.7012,1.95605 -0.1279,0.76273 -0.111,1.40834 0.048,1.93733 0.1592,0.52488 0.429,0.92478 0.8061,1.19952 0.3815,0.27474 0.8344,0.41206 1.3592,0.41206 0.3731,0 0.6991,-0.062 0.978,-0.18508 0.2789,-0.12716 0.5149,-0.28289 0.7077,-0.46743 0.1931,-0.18869 0.3485,-0.37731 0.4674,-0.56593 h 0.085 l -0.1786,1.10097 h 1.815 l 1.1377,-6.87632 h -1.8389 l -0.1906,1.15638 h -0.06 c -0.053,-0.18435 -0.1448,-0.37157 -0.271,-0.56021 -0.1279,-0.1928 -0.3096,-0.35418 -0.5473,-0.48542 -0.2388,-0.13102 -0.5494,-0.19713 -0.935,-0.19713 z m -187.5798,0.0864 -1.1381,6.87632 h 1.8451 l 1.1385,-6.87632 z m 39.911,0 -1.1377,6.87632 h 1.8454 l 1.1378,-6.87632 z m 6.5751,0 -0.2459,1.48859 h 3.2418 l -0.024,0.0487 -4.0407,4.21985 -0.1858,1.11897 h 5.7394 l 0.2466,-1.48861 h -3.2606 v -0.0487 l 3.8258,-4.11486 0.2026,-1.22394 z m 121.5349,0 -1.1377,6.87632 h 1.8454 l 1.1377,-6.87632 z m -23.7592,1.27285 c 0.3158,0 0.5639,0.0635 0.7443,0.19062 0.181,0.12716 0.2703,0.29971 0.2703,0.51704 0,0.21331 -0.077,0.38347 -0.2341,0.51058 -0.152,0.12306 -0.4302,0.21548 -0.8363,0.27686 -0.402,0.0613 -0.9801,0.0982 -1.7344,0.11076 0.082,-0.27472 0.1979,-0.53563 0.3443,-0.7817 0.152,-0.24602 0.3446,-0.44441 0.5782,-0.59616 0.2388,-0.15154 0.5269,-0.22803 0.8674,-0.22803 z m -52.0952,0.0929 c 0.3813,0 0.6665,0.1245 0.8549,0.37465 0.1882,0.25015 0.2836,0.58256 0.2836,0.99672 0,0.28296 -0.039,0.58813 -0.1159,0.91617 -0.077,0.32396 -0.2002,0.63149 -0.3631,0.92266 -0.1593,0.28704 -0.3649,0.5231 -0.6148,0.70759 -0.2462,0.18435 -0.5417,0.27688 -0.8861,0.27688 -0.3815,0 -0.6664,-0.12692 -0.8551,-0.38114 -0.1882,-0.25423 -0.2826,-0.58664 -0.2826,-0.99672 0,-0.28704 0.039,-0.5922 0.1183,-0.91617 0.077,-0.32806 0.1978,-0.63559 0.3566,-0.92263 0.1641,-0.28704 0.3689,-0.52144 0.6148,-0.70185 0.2502,-0.18435 0.5473,-0.27616 0.8918,-0.27616 z m -68.1848,0.0246 c 0.4715,0 0.8032,0.18628 0.9958,0.55946 0.1979,0.36909 0.2442,0.8677 0.1424,1.49508 -0.1038,0.61921 -0.3137,1.11949 -0.6334,1.50083 -0.3159,0.37726 -0.7116,0.56595 -1.1875,0.56595 -0.4796,0 -0.816,-0.19279 -1.0088,-0.57819 -0.1882,-0.38956 -0.2316,-0.88579 -0.1279,-1.48859 0.099,-0.6028 0.3031,-1.09499 0.6148,-1.47635 0.3156,-0.38547 0.7179,-0.57819 1.206,-0.57819 z m 35.3775,0 c 0.4715,0 0.804,0.18628 0.9966,0.55946 0.1978,0.36909 0.2434,0.8677 0.1399,1.49508 -0.1037,0.61921 -0.3137,1.11949 -0.6334,1.50083 -0.3158,0.37726 -0.7111,0.56595 -1.1867,0.56595 -0.4796,0 -0.8163,-0.19279 -1.0088,-0.57819 -0.1882,-0.38956 -0.2316,-0.88579 -0.1303,-1.48859 0.099,-0.6028 0.3038,-1.09499 0.6155,-1.47635 0.3156,-0.38547 0.7172,-0.57819 1.2053,-0.57819 z m 21.6875,0 c 0.4715,0 0.8031,0.18628 0.9959,0.55946 0.1978,0.36909 0.2441,0.8677 0.1423,1.49508 -0.1037,0.61921 -0.3137,1.11949 -0.6336,1.50083 -0.3156,0.37726 -0.7116,0.56595 -1.1872,0.56595 -0.4797,0 -0.8163,-0.19279 -1.0088,-0.57819 -0.1882,-0.38956 -0.2317,-0.88579 -0.1279,-1.48859 0.099,-0.6028 0.303,-1.09499 0.6148,-1.47635 0.3156,-0.38547 0.7181,-0.57819 1.206,-0.57819 z m 106.8653,0 c 0.4717,0 0.804,0.18628 0.9968,0.55946 0.1978,0.36909 0.2434,0.8677 0.1399,1.49508 -0.1037,0.61921 -0.3137,1.11949 -0.6336,1.50083 -0.3156,0.37726 -0.7109,0.56595 -1.1865,0.56595 -0.4797,0 -0.8163,-0.19351 -1.0088,-0.57889 -0.1882,-0.38956 -0.2317,-0.88509 -0.1303,-1.48789 0.099,-0.6028 0.3038,-1.09499 0.6155,-1.47635 0.3156,-0.38547 0.7172,-0.57819 1.2053,-0.57819 z m -79.8341,1.77122 1.3658,1.91935 c -0.4964,0.29527 -0.9845,0.44296 -1.4642,0.44296 -0.3569,0 -0.6291,-0.0883 -0.8178,-0.26462 -0.1882,-0.18049 -0.2666,-0.42454 -0.234,-0.73207 0.024,-0.24194 0.1134,-0.46118 0.2705,-0.658 0.1592,-0.201 0.4097,-0.41047 0.7499,-0.62783 z" />
  </g>
</svg>
